<svg width="235" height="157" viewBox="0 0 235 157" fill="none" xmlns="http://www.w3.org/2000/svg">
<rect width="235" height="157" rx="9" fill="#F4F4F4"/>
<g clip-path="url(#clip0_27_729)">
<path d="M150.449 22.0587H47.0439V88.4398H150.449V22.0587Z" fill="#E6E6E6"/>
<path d="M147.493 30.3845H50.001V84.5126H147.493V30.3845Z" fill="white"/>
<path d="M150.405 22H47V26.4033H150.405V22Z" fill="#50D669"/>
<path d="M50.2645 25.0676C50.7142 25.0676 51.0788 24.7022 51.0788 24.2514C51.0788 23.8006 50.7142 23.4352 50.2645 23.4352C49.8148 23.4352 49.4502 23.8006 49.4502 24.2514C49.4502 24.7022 49.8148 25.0676 50.2645 25.0676Z" fill="white"/>
<path d="M53.3553 25.0676C53.805 25.0676 54.1696 24.7022 54.1696 24.2514C54.1696 23.8006 53.805 23.4352 53.3553 23.4352C52.9056 23.4352 52.541 23.8006 52.541 24.2514C52.541 24.7022 52.9056 25.0676 53.3553 25.0676Z" fill="white"/>
<path d="M56.4456 25.0676C56.8953 25.0676 57.2599 24.7022 57.2599 24.2514C57.2599 23.8006 56.8953 23.4352 56.4456 23.4352C55.9959 23.4352 55.6313 23.8006 55.6313 24.2514C55.6313 24.7022 55.9959 25.0676 56.4456 25.0676Z" fill="white"/>
<path d="M81.064 34.8367H61.9961V55.5723H81.064V34.8367Z" fill="#E6E6E6"/>
<path d="M108.281 34.8367H89.2129V55.5723H108.281V34.8367Z" fill="#E6E6E6"/>
<path d="M135.497 34.8367H116.429V55.5723H135.497V34.8367Z" fill="#E6E6E6"/>
<path d="M81.064 59.3256H61.9961V80.0612H81.064V59.3256Z" fill="#E6E6E6"/>
<path d="M108.281 59.3256H89.2129V80.0612H108.281V59.3256Z" fill="#E6E6E6"/>
<path d="M135.497 59.3256H116.429V80.0612H135.497V59.3256Z" fill="#E6E6E6"/>
<path d="M93.8212 64.6547L97.3052 63.274L97.7103 70.1771C97.7103 70.1771 98.4394 72.2886 98.1964 73.1007C98.1964 73.1007 98.3584 74.4814 97.9533 74.5626C97.5481 74.6438 96.4136 74.8063 96.3334 74.7249C96.2532 74.6436 96.2524 74.4 96.2524 74.4C96.2524 74.4 95.4421 74.9685 95.3611 75.6182C95.3611 75.6182 91.9582 76.6739 91.8772 75.6993C91.7962 74.7248 93.5786 73.9126 93.5786 73.9126L94.956 71.8011L93.8212 64.6547Z" fill="white"/>
<path d="M101.195 64.6547L104.678 63.274L105.083 70.1771C105.083 70.1771 105.812 72.2886 105.569 73.1007C105.569 73.1007 105.731 74.4814 105.326 74.5626C104.921 74.6438 103.787 74.8063 103.706 74.7249C103.626 74.6436 103.625 74.4 103.625 74.4C103.625 74.4 102.815 74.9685 102.734 75.6182C102.734 75.6182 99.3312 76.6739 99.2502 75.6993C99.1692 74.7248 100.952 73.9126 100.952 73.9126L102.329 71.8011L101.195 64.6547Z" fill="white"/>
<path d="M101.535 37.9976C101.535 37.9976 100.793 40.0753 101.653 41.0123L100.936 43.4805C100.936 43.4805 103.482 51.1364 102.755 52.2058C102.755 52.2058 100.039 53.5668 94.6069 51.7196L96.8134 43.1401L96.4982 39.5188L96.9346 37.8174L97.9045 37.7209C97.9045 37.7209 97.3226 39.9083 98.3895 40.2486C99.4564 40.589 100.497 37.7756 100.497 37.7756L101.535 37.9976Z" fill="#3F3D56"/>
<path d="M67.2764 51.4096L68.2125 51.7936L72.6806 45.9075L74.0848 52.8171L75.021 52.6466C75.6214 46.6895 76.1116 40.6134 75.5103 37.7396L72.0423 37.5902L70.4679 42.6239L69.7019 46.0361L67.2764 51.4096Z" fill="white"/>
<path d="M124.094 37.6925C124.094 37.6925 122.817 39.4728 122.879 40.1913C122.942 40.9097 123.752 52.6227 123.752 52.6227L125.653 52.7164L125.091 44.283L125.559 42.0029L126.712 52.6227L129.049 52.6852L126.961 38.9108L126.556 37.6927L124.094 37.6925Z" fill="white"/>
<path d="M131.316 66.3738C130.976 65.9658 130.393 65.7452 129.833 65.6259C129.849 65.5749 128.13 65.2188 128.101 65.2922L127.453 64.7747L125.461 65.8111L124.342 65.0475L123.823 65.2324C123.844 65.1404 122.209 65.4243 122.209 65.4243C121.897 65.4356 121.498 65.4552 121.051 65.4896C119.488 65.6101 119.367 69.6694 119.367 69.6694C120.087 69.3744 120.854 69.2135 121.631 69.1944L122.053 74.0495C124.227 73.8627 126.507 74.08 128.87 74.6121L129.978 70.7956L132.558 69.7897C132.558 69.7897 132.117 67.3382 131.316 66.3738Z" fill="#3F3D56"/>
<path d="M75.9404 64.0618C75.6608 63.7257 75.1805 63.5439 74.7191 63.4456C74.7328 63.4035 73.3158 63.1103 73.2916 63.1707L72.7575 62.7444L71.1169 63.5984L70.1949 62.9693L69.7666 63.1217C69.7841 63.046 68.437 63.2797 68.437 63.2797C68.1804 63.2891 67.851 63.3051 67.4832 63.3336C66.1948 63.4329 66.0957 66.7773 66.0957 66.7773C66.6885 66.5342 67.3206 66.4016 67.9608 66.3859L68.309 76.1786C70.1001 76.0246 71.9785 76.2039 73.925 76.6423L74.8379 67.7054L76.9642 66.8767C76.9642 66.8767 76.601 64.8568 75.9404 64.0618Z" fill="white"/>
<path d="M167.202 66.6684H176.344V61.7651C176.344 60.55 175.862 59.3846 175.005 58.5253C174.148 57.6661 172.985 57.1833 171.773 57.1833C170.56 57.1833 169.398 57.6661 168.54 58.5253C167.683 59.3846 167.202 60.55 167.202 61.7651V66.6684Z" fill="#2F2E41"/>
<path d="M163.12 121.223H161.154L160.219 113.62H163.121L163.12 121.223Z" fill="#FFB6B6"/>
<path d="M163.622 120.579H159.75C159.095 120.579 158.468 120.84 158.005 121.304C157.542 121.768 157.282 122.397 157.282 123.053V123.133H163.622V120.579Z" fill="#2F2E41"/>
<path d="M186.626 118.593L184.914 119.561L180.371 113.402L182.898 111.972L186.626 118.593Z" fill="#FFB6B6"/>
<path d="M186.747 117.785L183.375 119.693C182.805 120.015 182.386 120.551 182.211 121.183C182.035 121.815 182.118 122.491 182.439 123.063L182.479 123.133L188 120.009L186.747 117.785Z" fill="#2F2E41"/>
<path d="M174.059 87.033L174.211 87.7934C174.211 87.7934 174.666 88.2497 174.438 88.4778C174.211 88.7059 174.287 89.7706 174.287 89.7706C174.414 91.712 176.945 102.621 177.397 104.752C177.397 104.752 180.887 107.033 183.619 111.52C186.35 116.007 186.425 117.148 186.425 117.148L183.391 118.441L175.805 109.239C175.805 109.239 173.681 107.946 172.922 106.806C172.163 105.665 167.458 93.8772 167.458 93.8772L164.802 106.197C164.802 106.197 164.954 110.684 164.271 113.574C163.851 115.397 163.598 117.256 163.513 119.125L159.947 118.745C159.947 118.745 160.174 107.946 160.554 106.805C160.554 106.805 158.96 93.6491 162.147 88.4018L164.715 81.5392L167.23 80.5688L174.059 87.033Z" fill="#2F2E41"/>
<path d="M171.82 58.3821C167.033 58.4641 167.034 65.6015 171.82 65.6827C176.607 65.6007 176.606 58.4633 171.82 58.3821Z" fill="#FFB8B8"/>
<path d="M168.136 61.8429H168.949L169.171 61.2877L169.06 61.8429H173.51L173.366 60.6811L174.447 61.8429H175.526V61.2134C175.527 60.727 175.431 60.2453 175.246 59.7958C175.061 59.3464 174.789 58.9379 174.446 58.5937C174.103 58.2496 173.696 57.9765 173.248 57.79C172.799 57.6036 172.319 57.5074 171.834 57.5071C171.349 57.5067 170.868 57.6022 170.42 57.788C169.971 57.9738 169.564 58.2463 169.22 58.59C168.877 58.9337 168.604 59.3418 168.418 59.791C168.232 60.2402 168.137 60.7218 168.136 61.2081V61.2134L168.136 61.8429Z" fill="#2F2E41"/>
<path d="M166.883 67.8141L175.929 67.8876L174.018 87.3267C174.018 87.3267 163.439 86.767 163.433 83.5304L164.424 80.6541L166.883 67.8141Z" fill="#3F3D56"/>
<path d="M176.318 89.2057C176.179 89.035 176.079 88.8358 176.025 88.6222C175.971 88.4086 175.964 88.1857 176.006 87.9692C176.047 87.7528 176.135 87.548 176.264 87.3694C176.393 87.1908 176.559 87.0427 176.751 86.9354L176.358 83.5132L178.374 82.7665L178.862 87.6072C179.019 87.9425 179.049 88.3239 178.944 88.6794C178.84 89.0349 178.61 89.3399 178.297 89.5367C177.984 89.7335 177.609 89.8085 177.245 89.7475C176.88 89.6865 176.55 89.4938 176.318 89.2057Z" fill="#FFB6B6"/>
<path d="M174.74 69.5621L175.93 67.8945C175.93 67.8945 176.745 67.7134 177.707 68.8387C178.669 69.9641 179.231 84.0309 179.231 84.0309L175.702 84.8347L173.617 74.8674L174.74 69.5621Z" fill="#3F3D56"/>
<path d="M154.802 84.8168L155.064 97.3141L163.136 101.59L177.835 98.9586L178.196 85.9679L168.877 82.679L154.802 84.8168Z" fill="white"/>
<path d="M163.115 101.724L154.937 97.3928L154.67 84.7059L168.89 82.5464L168.92 82.557L178.327 85.8772L177.961 99.0671L163.115 101.724ZM155.191 97.2353L163.157 101.454L177.709 98.8497L178.064 86.0583L168.865 82.8115L154.933 84.9274L155.191 97.2353Z" fill="#CACACA"/>
<path d="M162.955 88.2053L162.924 88.1928L154.754 84.9368L154.849 84.6968L162.987 87.94L178.178 85.84L178.213 86.0959L162.955 88.2053Z" fill="#CACACA"/>
<path d="M163.1 88.0711L162.842 88.0742L163.006 101.591L163.264 101.588L163.1 88.0711Z" fill="#CACACA"/>
<path d="M161.923 87.5584L158.978 86.3616L173.155 84.0973L176.1 85.2939L161.923 87.5584Z" fill="#CACACA"/>
<path d="M154.852 88.4421L154.75 88.6794L158.166 90.1535L158.268 89.9162L154.852 88.4421Z" fill="#CACACA"/>
<path d="M156.399 92.7055L156.297 92.9429L159.713 94.417L159.814 94.1796L156.399 92.7055Z" fill="#50D669"/>
<path d="M109.894 102.179L110.156 114.677L118.227 118.952L132.927 116.321L133.288 103.33L123.969 100.042L109.894 102.179Z" fill="white"/>
<path d="M118.206 119.087L110.028 114.755L109.762 102.069L123.981 99.9091L124.012 99.9197L133.419 103.24L133.052 116.43L118.206 119.087ZM110.283 114.598L118.248 118.817L132.8 116.212L133.156 103.421L123.956 100.174L110.024 102.29L110.283 114.598Z" fill="#CACACA"/>
<path d="M118.047 105.568L118.015 105.555L109.846 102.299L109.941 102.059L118.079 105.302L133.27 103.202L133.305 103.458L118.047 105.568Z" fill="#CACACA"/>
<path d="M118.192 105.434L117.935 105.437L118.099 118.954L118.356 118.95L118.192 105.434Z" fill="#CACACA"/>
<path d="M116.301 104.627L114.069 103.724L128.247 101.46L130.478 102.362L116.301 104.627Z" fill="#CACACA"/>
<path d="M109.944 105.805L109.842 106.042L113.258 107.516L113.36 107.279L109.944 105.805Z" fill="#CACACA"/>
<path d="M111.491 110.068L111.389 110.305L114.805 111.78L114.907 111.542L111.491 110.068Z" fill="#50D669"/>
<path d="M123.916 103.893L124.22 118.4L133.59 123.363L150.653 120.309L151.072 105.229L140.255 101.411L123.916 103.893Z" fill="#50D669"/>
<path d="M133.565 123.52L124.073 118.492L123.763 103.764L140.27 101.257L140.305 101.27L151.225 105.124L150.799 120.435L133.565 123.52ZM124.368 118.309L133.614 123.207L150.507 120.183L150.92 105.334L140.241 101.565L124.068 104.021L124.368 118.309Z" fill="#3F3D56"/>
<path d="M133.381 107.826L133.344 107.812L123.86 104.032L123.971 103.753L133.418 107.518L151.052 105.081L151.093 105.378L133.381 107.826Z" fill="#3F3D56"/>
<path d="M133.549 107.67L133.25 107.674L133.44 123.365L133.74 123.361L133.549 107.67Z" fill="#3F3D56"/>
<path d="M131.506 106.741L128.764 105.686L145.221 103.057L147.964 104.112L131.506 106.741Z" fill="#3F3D56"/>
<path d="M123.975 108.101L123.856 108.377L127.821 110.088L127.94 109.812L123.975 108.101Z" fill="#3F3D56"/>
<path d="M125.77 113.05L125.652 113.326L129.617 115.037L129.735 114.762L125.77 113.05Z" fill="white"/>
<path d="M159.378 86.8833C159.577 86.7896 159.753 86.6534 159.894 86.4842C160.035 86.3149 160.137 86.1168 160.193 85.9038C160.249 85.6907 160.258 85.468 160.219 85.2511C160.18 85.0342 160.094 84.8286 159.967 84.6486L161.799 81.734L160.304 80.1862L157.774 84.3385C157.487 84.5723 157.295 84.9036 157.235 85.2697C157.175 85.6358 157.251 86.0112 157.449 86.3249C157.646 86.6385 157.952 86.8686 158.307 86.9715C158.663 87.0745 159.044 87.0431 159.378 86.8834V86.8833Z" fill="#FFB6B6"/>
<path d="M168.274 68.5802L166.961 67.7134C166.961 67.7134 165.948 67.941 164.871 70.0178C163.794 72.0945 159.45 81.3793 159.45 81.3793L161.236 83.1959L165.999 75.9119L168.274 68.5802Z" fill="#3F3D56"/>
</g>
<defs>
<clipPath id="clip0_27_729">
<rect width="141" height="101.52" fill="white" transform="translate(47 22)"/>
</clipPath>
</defs>
</svg>
