<svg width="166" height="123" viewBox="0 0 166 123" fill="none" xmlns="http://www.w3.org/2000/svg">
<path d="M13.1279 70.1214V58.8558H18.0638C19.2897 58.8558 20.365 59.0922 21.2898 59.5642C22.2146 60.0362 22.9351 60.6905 23.4512 61.5276C23.9674 62.3643 24.2255 63.3516 24.2255 64.4886C24.2255 65.6153 23.9674 66.6022 23.4512 67.4496C22.9351 68.2867 22.2146 68.941 21.2898 69.413C20.365 69.8854 19.2897 70.1214 18.0638 70.1214H13.1279ZM15.2249 68.351H17.967C18.8165 68.351 19.5477 68.1901 20.1607 67.8683C20.7844 67.5465 21.2629 67.0956 21.5963 66.5164C21.9404 65.9371 22.1124 65.2609 22.1124 64.4886C22.1124 63.7055 21.9404 63.0293 21.5963 62.4608C21.2629 61.8816 20.7844 61.4311 20.1607 61.1093C19.5477 60.787 18.8165 60.6261 17.967 60.6261H15.2249V68.351ZM28.0672 63.5391H33.6805V65.2609H28.0672V63.5391ZM28.2286 68.3669H34.5999V70.1214H26.1316V58.8558H34.3741V60.6103H28.2286V68.3669ZM40.1152 70.2823C39.2334 70.2823 38.3893 70.1587 37.5828 69.912C36.7763 69.6545 36.1364 69.3272 35.6633 68.9303L36.3891 67.305C36.8408 67.659 37.4 67.9542 38.0667 68.1901C38.7334 68.4261 39.4162 68.5441 40.1152 68.5441C40.7066 68.5441 41.1852 68.4798 41.5508 68.351C41.9164 68.2223 42.1852 68.0507 42.3573 67.8362C42.5294 67.6109 42.6154 67.3586 42.6154 67.0797C42.6154 66.7365 42.4917 66.4627 42.2444 66.2589C41.997 66.0444 41.6745 65.8779 41.2766 65.7599C40.8895 65.6312 40.4539 65.5132 39.97 65.4059C39.4969 65.2987 39.0183 65.1751 38.5344 65.0356C38.0613 64.8855 37.6258 64.698 37.2279 64.4727C36.8408 64.2363 36.5236 63.9252 36.2762 63.5391C36.0289 63.1529 35.9052 62.6595 35.9052 62.0584C35.9052 61.4469 36.0665 60.8892 36.3891 60.385C36.7225 59.8697 37.2225 59.4621 37.8892 59.1617C38.5667 58.8507 39.4216 58.6949 40.4539 58.6949C41.1314 58.6949 41.8035 58.7807 42.4702 58.9528C43.1371 59.1244 43.7176 59.3711 44.2122 59.6929L43.5508 61.3182C43.0455 61.0179 42.524 60.7978 41.9863 60.6583C41.4486 60.5081 40.9325 60.4331 40.4378 60.4331C39.8571 60.4331 39.384 60.503 39.0183 60.6424C38.6635 60.7819 38.4 60.9642 38.228 61.1895C38.0667 61.4148 37.986 61.6722 37.986 61.9618C37.986 62.3055 38.1043 62.5844 38.3409 62.7989C38.5882 63.0027 38.9055 63.1636 39.2926 63.2816C39.6904 63.3996 40.1313 63.5176 40.6152 63.6356C41.0991 63.7429 41.5777 63.8664 42.0508 64.0059C42.5347 64.1453 42.9703 64.3277 43.3573 64.553C43.7551 64.7782 44.0724 65.0841 44.309 65.4703C44.5562 65.8565 44.6801 66.3447 44.6801 66.9347C44.6801 67.5358 44.5132 68.0936 44.18 68.6085C43.8574 69.1126 43.3573 69.5202 42.6799 69.8317C42.0024 70.1321 41.1475 70.2823 40.1152 70.2823ZM46.4369 70.1214V58.8558H48.5338V70.1214H46.4369ZM56.5396 70.2823C55.658 70.2823 54.8461 70.1428 54.1038 69.8639C53.3727 69.5739 52.7328 69.1718 52.1845 68.657C51.6362 68.1309 51.2113 67.5144 50.9103 66.806C50.6092 66.098 50.4587 65.3257 50.4587 64.4886C50.4587 63.6519 50.6092 62.8792 50.9103 62.1712C51.2113 61.4632 51.6362 60.8514 52.1845 60.3365C52.7436 59.8109 53.3942 59.4085 54.1361 59.1296C54.8783 58.8399 55.6903 58.6949 56.5719 58.6949C57.5288 58.6949 58.3893 58.8507 59.1526 59.1617C59.9272 59.4728 60.5774 59.9289 61.1046 60.5296L59.7818 61.8172C59.341 61.3774 58.8624 61.0556 58.3463 60.8514C57.841 60.6369 57.2815 60.5296 56.6687 60.5296C56.0773 60.5296 55.5286 60.6261 55.0233 60.8192C54.518 61.0123 54.0823 61.286 53.7168 61.64C53.3512 61.994 53.0661 62.4128 52.8618 62.8955C52.6683 63.3782 52.5716 63.9094 52.5716 64.4886C52.5716 65.0571 52.6683 65.5831 52.8618 66.0658C53.0661 66.5485 53.3512 66.9725 53.7168 67.3372C54.0823 67.6911 54.5128 67.9649 55.0074 68.158C55.5019 68.351 56.0502 68.4476 56.6527 68.4476C57.2118 68.4476 57.7494 68.3618 58.2654 68.1901C58.7922 68.0078 59.2924 67.7074 59.7655 67.2887L60.9593 68.85C60.368 69.322 59.6795 69.6816 58.8946 69.9283C58.1205 70.1643 57.3352 70.2823 56.5396 70.2823ZM58.9755 68.5763V64.3599H60.9593V68.85L58.9755 68.5763ZM63.4024 70.1214V58.8558H65.1282L72.2094 67.5302H71.3545V58.8558H73.4355V70.1214H71.7093L64.6281 61.4469H65.483V70.1214H63.4024Z" fill="#32CD32"/>
<path d="M80.1175 70.2501C79.4509 70.2501 78.8273 70.1106 78.2463 69.8317C77.6658 69.5524 77.1927 69.1504 76.8271 68.6248L77.7625 67.5302C78.0743 67.9593 78.4239 68.2918 78.811 68.5278C79.2088 68.7535 79.6444 68.8659 80.1175 68.8659C81.4081 68.8659 82.0531 68.1043 82.0531 66.5807V60.2563H77.9724V58.8558H83.6499V66.5005C83.6499 67.7555 83.3489 68.6943 82.7468 69.3164C82.1555 69.939 81.279 70.2501 80.1175 70.2501ZM91.2911 70.2501C89.807 70.2501 88.6402 69.8262 87.7905 68.9788C86.9411 68.1309 86.5162 66.8918 86.5162 65.2609V58.8558H88.1293V65.1965C88.1293 66.452 88.4037 67.3693 88.952 67.9486C89.5111 68.5278 90.2964 68.8179 91.307 68.8179C92.3288 68.8179 93.1136 68.5278 93.662 67.9486C94.221 67.3693 94.501 66.452 94.501 65.1965V58.8558H96.0655V65.2609C96.0655 66.8918 95.6406 68.1309 94.7913 68.9788C93.9522 69.8262 92.7855 70.2501 91.2911 70.2501ZM99.0497 70.1214V58.8558H100.372L105.437 67.3693H104.728L109.728 58.8558H111.051L111.067 70.1214H109.518L109.502 61.286H109.873L105.421 68.7535H104.679L100.195 61.286H100.598V70.1214H99.0497ZM114.133 70.1214V58.8558H118.536C119.526 58.8558 120.37 59.0116 121.069 59.3226C121.768 59.6337 122.306 60.0846 122.682 60.6746C123.058 61.2646 123.246 61.9674 123.246 62.7826C123.246 63.5983 123.058 64.3011 122.682 64.891C122.306 65.4703 121.768 65.9208 121.069 66.2426C120.37 66.5541 119.526 66.7094 118.536 66.7094H115.02L115.746 65.953V70.1214H114.133ZM115.746 66.1139L115.02 65.3094H118.488C119.52 65.3094 120.3 65.0893 120.827 64.6495C121.365 64.2097 121.633 63.5875 121.633 62.7826C121.633 61.9781 121.365 61.356 120.827 60.9158C120.3 60.476 119.52 60.2563 118.488 60.2563H115.02L115.746 59.4513V66.1139Z" fill="white"/>
<path d="M12.2461 78.8468V74.6222H12.851V78.8468H12.2461ZM13.9977 78.8468V74.6222H14.4936L17.2942 78.0925H17.0341V74.6222H17.639V78.8468H17.143L14.3424 75.3765H14.6025V78.8468H13.9977ZM20.0194 78.8949C19.6967 78.8949 19.3883 78.8468 19.0939 78.7503C18.7995 78.6495 18.5676 78.5207 18.3983 78.3637L18.6221 77.893C18.7834 78.0342 18.989 78.1505 19.2391 78.2431C19.4891 78.3358 19.7492 78.3822 20.0194 78.3822C20.2654 78.3822 20.4649 78.3538 20.6182 78.2976C20.7714 78.241 20.8843 78.1646 20.9569 78.0681C21.0295 77.9677 21.0658 77.8548 21.0658 77.7304C21.0658 77.5854 21.0174 77.4687 20.9206 77.3803C20.8279 77.2919 20.7049 77.2211 20.5516 77.1692C20.4025 77.1125 20.2371 77.0645 20.0557 77.0242C19.8742 76.9838 19.6907 76.9375 19.5052 76.8851C19.3238 76.8289 19.1564 76.7586 19.0032 76.674C18.854 76.5895 18.733 76.4771 18.6402 76.3364C18.5475 76.1913 18.5011 76.0064 18.5011 75.7807C18.5011 75.5636 18.5576 75.3645 18.6705 75.1835C18.7874 74.9985 18.9648 74.8514 19.2028 74.7428C19.4447 74.6304 19.7512 74.5738 20.1222 74.5738C20.3682 74.5738 20.6121 74.6059 20.8541 74.6703C21.096 74.7351 21.3057 74.8273 21.4832 74.9479L21.2835 75.431C21.1021 75.31 20.9106 75.2238 20.7089 75.1715C20.5073 75.1152 20.3117 75.0869 20.1222 75.0869C19.8843 75.0869 19.6887 75.117 19.5355 75.1775C19.3822 75.238 19.2693 75.3182 19.1967 75.419C19.1282 75.5194 19.0939 75.6323 19.0939 75.7567C19.0939 75.9056 19.1403 76.0244 19.233 76.1128C19.3298 76.2012 19.4528 76.2716 19.602 76.3239C19.7552 76.3763 19.9226 76.4248 20.104 76.4689C20.2855 76.5093 20.467 76.5556 20.6484 76.6075C20.8339 76.6599 21.0013 76.7285 21.1505 76.8131C21.3037 76.8976 21.4267 77.01 21.5195 77.1507C21.6122 77.2919 21.6586 77.4725 21.6586 77.6939C21.6586 77.9072 21.6001 78.1063 21.4832 78.2916C21.3662 78.4727 21.1848 78.6194 20.9388 78.7318C20.6968 78.8408 20.3904 78.8949 20.0194 78.8949ZM22.4213 78.8468V74.6222H24.0726C24.4436 74.6222 24.7602 74.6806 25.0223 74.7973C25.2844 74.914 25.4861 75.0831 25.6272 75.304C25.7683 75.5254 25.8389 75.7889 25.8389 76.0948C25.8389 76.4007 25.7683 76.6642 25.6272 76.8851C25.4861 77.1027 25.2844 77.2717 25.0223 77.3923C24.7602 77.509 24.4436 77.5674 24.0726 77.5674H22.754L23.0262 77.2837V78.8468H22.4213ZM23.0262 77.3438L22.754 77.0422H24.0545C24.4416 77.0422 24.734 76.9598 24.9315 76.7946C25.1332 76.6298 25.234 76.3964 25.234 76.0948C25.234 75.7932 25.1332 75.5598 24.9315 75.3946C24.734 75.2298 24.4416 75.1474 24.0545 75.1474H22.754L23.0262 74.8454V77.3438ZM26.6066 78.8468V74.6222H27.2115V78.8468H26.6066ZM28.3581 78.8468V74.6222H30.0094C30.3804 74.6222 30.697 74.6806 30.9591 74.7973C31.2212 74.914 31.4228 75.0831 31.564 75.304C31.7051 75.5254 31.7757 75.7889 31.7757 76.0948C31.7757 76.4007 31.7051 76.6642 31.564 76.8851C31.4228 77.1027 31.2212 77.2696 30.9591 77.3863C30.697 77.503 30.3804 77.5614 30.0094 77.5614H28.6908L28.963 77.2837V78.8468H28.3581ZM31.189 78.8468L30.1123 77.3138H30.7595L31.8483 78.8468H31.189ZM28.963 77.3438L28.6908 77.0482H29.9913C30.3784 77.0482 30.6708 76.9658 30.8684 76.801C31.07 76.632 31.1708 76.3964 31.1708 76.0948C31.1708 75.7932 31.07 75.5598 30.8684 75.3946C30.6708 75.2298 30.3784 75.1474 29.9913 75.1474H28.6908L28.963 74.8454V77.3438ZM33.1824 76.4449H35.36V76.9577H33.1824V76.4449ZM33.2369 78.3217H35.7048V78.8468H32.632V74.6222H35.6201V75.1474H33.2369V78.3217Z" fill="white"/>
<path d="M43.8796 78.8949C43.5571 78.8949 43.2586 78.8425 42.9844 78.7378C42.7143 78.6293 42.4784 78.4787 42.2767 78.2856C42.0791 78.0882 41.9239 77.8591 41.811 77.5974C41.6981 77.3361 41.6416 77.0482 41.6416 76.7345C41.6416 76.4205 41.6981 76.133 41.811 75.8713C41.9239 75.61 42.0812 75.3826 42.2828 75.1895C42.4844 74.9925 42.7203 74.8415 42.9905 74.7368C43.2647 74.6283 43.5631 74.5738 43.8857 74.5738C44.2125 74.5738 44.5127 74.6304 44.787 74.7428C45.0653 74.8514 45.301 75.0144 45.4949 75.232L45.1014 75.6121C44.9401 75.4431 44.7587 75.3182 44.557 75.238C44.3557 75.1534 44.1398 75.111 43.9097 75.111C43.6719 75.111 43.45 75.1513 43.2444 75.232C43.0428 75.3122 42.8675 75.425 42.7183 75.5696C42.5691 75.7147 42.4522 75.8876 42.3675 76.0888C42.2868 76.2857 42.2465 76.5011 42.2465 76.7345C42.2465 76.968 42.2868 77.1851 42.3675 77.3863C42.4522 77.5832 42.5691 77.7544 42.7183 77.899C42.8675 78.044 43.0428 78.1569 43.2444 78.2371C43.45 78.3178 43.6719 78.3577 43.9097 78.3577C44.1398 78.3577 44.3557 78.3178 44.557 78.2371C44.7587 78.1526 44.9401 78.0239 45.1014 77.851L45.4949 78.2311C45.301 78.4482 45.0653 78.6134 44.787 78.7258C44.5127 78.8387 44.2103 78.8949 43.8796 78.8949ZM46.2367 78.8468V74.6222H47.8881C48.2589 74.6222 48.5754 74.6806 48.8377 74.7973C49.0996 74.914 49.3013 75.0831 49.4424 75.304C49.5838 75.5254 49.6544 75.7889 49.6544 76.0948C49.6544 76.4007 49.5838 76.6642 49.4424 76.8851C49.3013 77.1027 49.0996 77.2696 48.8377 77.3863C48.5754 77.503 48.2589 77.5614 47.8881 77.5614H46.5692L46.8414 77.2837V78.8468H46.2367ZM49.0673 78.8468L47.9909 77.3138H48.6382L49.7266 78.8468H49.0673ZM46.8414 77.3438L46.5692 77.0482H47.8697C48.2571 77.0482 48.5491 76.9658 48.747 76.801C48.9487 76.632 49.0493 76.3964 49.0493 76.0948C49.0493 75.7932 48.9487 75.5598 48.747 75.3946C48.5491 75.2298 48.2571 75.1474 47.8697 75.1474H46.5692L46.8414 74.8454V77.3438ZM51.0611 76.4449H53.2384V76.9577H51.0611V76.4449ZM51.1153 78.3217H53.5833V78.8468H50.5106V74.6222H53.4986V75.1474H51.1153V78.3217ZM53.8005 78.8468L55.7181 74.6222H56.3167L58.2404 78.8468H57.6052L55.8936 74.9603H56.1352L54.4236 78.8468H53.8005ZM54.6172 77.7905L54.7806 77.3078H57.1635L57.339 77.7905H54.6172ZM59.3791 78.8468V75.1474H57.9273V74.6222H61.4296V75.1474H59.9782V78.8468H59.3791ZM62.5181 76.4449H64.6954V76.9577H62.5181V76.4449ZM62.5723 78.3217H65.0403V78.8468H61.9676V74.6222H64.9556V75.1474H62.5723V78.3217Z" fill="white"/>
<path d="M71.5586 78.8468V74.6222H72.1637V78.3217H74.4563V78.8468H71.5586ZM75.5796 76.4449H77.7574V76.9577H75.5796V76.4449ZM75.6342 78.3217H78.1018V78.8468H75.0291V74.6222H78.0175V75.1474H75.6342V78.3217ZM78.3194 78.8468L80.2366 74.6222H80.8357L82.7593 78.8468H82.1241L80.4121 74.9603H80.6542L78.9421 78.8468H78.3194ZM79.1361 77.7905L79.2991 77.3078H81.6824L81.8579 77.7905H79.1361ZM83.2698 78.8468V74.6222H84.9212C85.2923 74.6222 85.6088 74.6806 85.8707 74.7973C86.133 74.914 86.3343 75.0831 86.4758 75.304C86.6169 75.5254 86.6874 75.7889 86.6874 76.0948C86.6874 76.4007 86.6169 76.6642 86.4758 76.8851C86.3343 77.1027 86.133 77.2717 85.8707 77.3923C85.6088 77.509 85.2923 77.5674 84.9212 77.5674H83.6026L83.8748 77.2837V78.8468H83.2698ZM83.8748 77.3438L83.6026 77.0422H84.9031C85.2901 77.0422 85.5826 76.9598 85.78 76.7946C85.9817 76.6298 86.0823 76.3964 86.0823 76.0948C86.0823 75.7932 85.9817 75.5598 85.78 75.3946C85.5826 75.2298 85.2901 75.1474 84.9031 75.1474H83.6026L83.8748 74.8454V77.3438ZM89.5618 76.62H91.7457V77.1387H89.5618V76.62ZM89.6225 78.8468H89.0174V74.6222H92.0058V75.1474H89.6225V78.8468ZM94.6003 78.8949C94.2778 78.8949 93.9772 78.8408 93.699 78.7318C93.425 78.6233 93.1868 78.4727 92.9855 78.2796C92.7838 78.0822 92.6264 77.8531 92.5133 77.5914C92.4006 77.3301 92.3443 77.0443 92.3443 76.7345C92.3443 76.4248 92.4006 76.139 92.5133 75.8777C92.6264 75.616 92.7838 75.3886 92.9855 75.1955C93.1868 74.9985 93.425 74.8454 93.699 74.7368C93.9733 74.6283 94.2735 74.5738 94.6003 74.5738C94.9229 74.5738 95.2192 74.6283 95.4897 74.7368C95.7636 74.8415 96.0014 74.9925 96.2031 75.1895C96.4091 75.3826 96.5661 75.61 96.6749 75.8713C96.788 76.133 96.8443 76.4205 96.8443 76.7345C96.8443 77.0482 96.788 77.3361 96.6749 77.5974C96.5661 77.8591 96.4091 78.0882 96.2031 78.2856C96.0014 78.4787 95.7636 78.6293 95.4897 78.7378C95.2192 78.8425 94.9229 78.8949 94.6003 78.8949ZM94.6003 78.3577C94.8343 78.3577 95.0502 78.3178 95.2476 78.2371C95.4493 78.1569 95.6226 78.044 95.7679 77.899C95.9172 77.7501 96.032 77.5772 96.1124 77.3803C96.1971 77.1829 96.2397 76.968 96.2397 76.7345C96.2397 76.5011 96.1971 76.2857 96.1124 76.0888C96.032 75.8914 95.9172 75.7207 95.7679 75.5756C95.6226 75.4267 95.4493 75.3122 95.2476 75.232C95.0502 75.1513 94.8343 75.111 94.6003 75.111C94.3625 75.111 94.1428 75.1513 93.9411 75.232C93.7432 75.3122 93.5699 75.4267 93.4207 75.5756C93.2715 75.7207 93.1545 75.8914 93.0702 76.0888C92.9894 76.2857 92.9489 76.5011 92.9489 76.7345C92.9489 76.968 92.9894 77.1829 93.0702 77.3803C93.1545 77.5772 93.2715 77.7501 93.4207 77.899C93.5699 78.044 93.7432 78.1569 93.9411 78.2371C94.1428 78.3178 94.3625 78.3577 94.6003 78.3577ZM97.6481 78.8468V74.6222H99.2995C99.6702 74.6222 99.9867 74.6806 100.249 74.7973C100.511 74.914 100.713 75.0831 100.854 75.304C100.995 75.5254 101.066 75.7889 101.066 76.0948C101.066 76.4007 100.995 76.6642 100.854 76.8851C100.713 77.1027 100.511 77.2696 100.249 77.3863C99.9867 77.503 99.6702 77.5614 99.2995 77.5614H97.9805L98.2528 77.2837V78.8468H97.6481ZM100.479 78.8468L99.4023 77.3138H100.05L101.138 78.8468H100.479ZM98.2528 77.3438L97.9805 77.0482H99.281C99.6685 77.0482 99.9605 76.9658 100.158 76.801C100.36 76.632 100.461 76.3964 100.461 76.0948C100.461 75.7932 100.36 75.5598 100.158 75.3946C99.9605 75.2298 99.6685 75.1474 99.281 75.1474H97.9805L98.2528 74.8454V77.3438ZM102.896 78.8468L101.48 74.6222H102.103L103.404 78.5207H103.089L104.438 74.6222H104.995L106.313 78.5207H106.011L107.329 74.6222H107.904L106.489 78.8468H105.854L104.62 75.232H104.783L103.543 78.8468H102.896ZM107.746 78.8468L109.663 74.6222H110.262L112.186 78.8468H111.551L109.839 74.9603H110.081L108.369 78.8468H107.746ZM108.563 77.7905L108.726 77.3078H111.109L111.285 77.7905H108.563ZM112.696 78.8468V74.6222H114.348C114.719 74.6222 115.036 74.6806 115.297 74.7973C115.56 74.914 115.761 75.0831 115.903 75.304C116.044 75.5254 116.114 75.7889 116.114 76.0948C116.114 76.4007 116.044 76.6642 115.903 76.8851C115.761 77.1027 115.56 77.2696 115.297 77.3863C115.036 77.503 114.719 77.5614 114.348 77.5614H113.029L113.302 77.2837V78.8468H112.696ZM115.528 78.8468L114.451 77.3138H115.098L116.187 78.8468H115.528ZM113.302 77.3438L113.029 77.0482H114.33C114.717 77.0482 115.009 76.9658 115.207 76.801C115.408 76.632 115.509 76.3964 115.509 76.0948C115.509 75.7932 115.408 75.5598 115.207 75.3946C115.009 75.2298 114.717 75.1474 114.33 75.1474H113.029L113.302 74.8454V77.3438ZM116.97 78.8468V74.6222H118.755C119.207 74.6222 119.604 74.7106 119.946 74.8878C120.293 75.0646 120.561 75.3122 120.751 75.6301C120.944 75.9481 121.041 76.3162 121.041 76.7345C121.041 77.1529 120.944 77.521 120.751 77.839C120.561 78.1569 120.293 78.404 119.946 78.5812C119.604 78.758 119.207 78.8468 118.755 78.8468H116.97ZM117.575 78.3217H118.719C119.069 78.3217 119.372 78.2552 119.626 78.1226C119.884 77.9896 120.083 77.8046 120.225 77.5674C120.366 77.3258 120.437 77.0482 120.437 76.7345C120.437 76.4166 120.366 76.139 120.225 75.9017C120.083 75.6644 119.884 75.4791 119.626 75.3465C119.372 75.2135 119.069 75.1474 118.719 75.1474H117.575V78.3217Z" fill="white"/>
<path d="M105.367 53.6186C107.048 53.8031 108.661 54.0546 110.274 54.1382C112.862 54.2725 115.18 55.2783 117.482 56.2673C120.271 57.4575 123.212 57.7257 126.152 57.9436C126.892 57.9943 127.496 58.1951 128.034 58.6979C129.16 59.7375 130.302 60.7767 131.462 61.7825C132.403 62.5874 132.923 63.6768 133.545 64.6997C134.116 65.6218 134.671 66.5601 135.208 67.5157C135.427 67.9014 135.73 68.1361 136.132 68.3373C139.006 69.712 141.879 71.1031 144.735 72.5113C145.34 72.7966 145.911 72.9137 146.6 72.7799C147.608 72.5786 148.65 72.5954 149.742 72.2766C149.356 71.1704 148.684 70.2651 148.029 69.3932C147.659 68.9071 146.936 68.9912 146.365 68.9745C143.408 68.9238 140.904 67.4487 138.266 66.4095C138.065 66.3254 137.88 66.1581 137.746 65.9903C135.712 63.5597 133.696 61.129 132.688 58.0612C132.57 57.7089 132.369 57.4073 132.285 57.0555C131.73 54.7085 130.084 53.3505 128.017 52.3447C127.883 52.2778 127.748 52.177 127.664 51.9925C129.008 52.5962 130.353 53.1827 131.697 53.7697C132.033 53.9203 132.184 54.1889 132.318 54.5072C132.739 55.4795 133.159 56.4518 133.579 57.424C134.066 58.5641 134.301 58.6645 135.545 58.0445C135.208 57.1391 134.419 56.4685 134.032 55.5464C134.519 55.0938 135.141 54.9264 135.746 54.7252C135.393 54.9766 135.041 55.2281 134.704 55.4795C134.738 55.9824 135.124 56.1669 135.41 56.4016C136.653 57.4408 137.914 58.4632 139.191 59.4694C139.661 59.838 139.88 60.1567 139.426 60.6931C138.989 61.2127 139.207 61.4976 139.812 61.5817C141.123 61.749 141.106 62.1682 141.61 60.6429C141.66 60.5086 141.711 60.3743 141.778 60.2571C142.265 59.5029 142.03 59.0167 141.308 58.5473C140.552 58.0445 139.796 57.491 139.123 56.804C139.526 56.435 140.064 56.5522 140.585 56.2003C140.467 56.5693 140.115 56.6028 140.148 56.871C140.182 57.1726 140.451 57.2395 140.652 57.3906C142.03 58.3628 143.559 57.8432 145.038 57.8265C145.189 57.8265 145.357 57.6253 145.491 57.4742C146.281 56.5861 147.071 55.6975 148.045 54.5909C146.584 54.5909 146.18 53.7362 145.777 52.7133C146.18 52.8811 146.265 53.2162 146.449 53.4341C146.718 53.7697 147.054 53.9876 147.474 53.8701C148.801 53.468 149.894 54.0044 150.935 54.7085C151.574 55.1444 152.078 55.1105 152.649 54.5909C153.12 54.1717 153.658 53.8199 154.245 53.3672C153.473 52.6129 152.632 52.177 151.876 51.6239C151.456 51.3223 150.952 51.1211 150.919 50.4504C150.919 50.1149 150.498 50.0312 150.23 49.8974C149.238 49.3941 148.214 48.9079 147.222 48.4051C146.634 48.1034 146.113 47.9022 146.147 48.9079C146.046 48.8745 146.013 48.8577 145.995 48.841C145.592 46.8128 144.063 46.092 142.282 45.6226C141.845 45.505 141.459 45.287 141.039 45.1364C140.518 44.9352 140.333 45.0858 140.4 45.6728C140.535 46.9634 141.005 47.9524 142.299 48.4385C142.769 48.6063 143.173 48.9247 143.66 49.21C143.021 50.1823 143.005 51.3223 142.501 52.4117C141.61 52.1435 140.77 51.7243 140.031 51.2215C138.955 50.5174 138.014 50.4337 137.023 51.3223C136.805 51.5231 136.486 51.6239 136.015 51.8753C136.368 51.2382 136.922 51.037 137.124 50.5174C136.788 49.9978 136.183 49.8467 135.696 49.5786C133.78 48.5226 131.798 47.6006 129.932 46.4605C128.589 45.656 127.211 45.723 125.799 45.8234C124.371 45.9242 122.943 45.9075 121.515 45.9409C120.943 45.9409 120.422 46.0752 119.918 46.3601C117.952 47.483 115.953 48.5561 114.004 49.6961C113.349 50.0814 112.66 50.2325 111.937 50.2492C109.031 50.3161 106.107 50.1823 103.2 50.4504C101.234 50.6349 99.4534 50.0982 97.6889 49.3271C95.0509 48.1871 92.3627 47.1479 89.6912 46.0581C89.4895 45.9744 89.2878 45.874 89.0693 46.0246C89.1029 46.3936 89.4392 46.4438 89.6576 46.5781C92.8331 48.5728 96.0086 50.5676 99.1846 52.5627C99.6211 52.8309 100.075 53.0154 100.579 53.0656C102.142 53.2162 103.687 53.4007 105.317 53.5684L105.367 53.6186Z" fill="#32CD32"/>
</svg>
