<svg width="235" height="157" viewBox="0 0 235 157" fill="none" xmlns="http://www.w3.org/2000/svg">
<rect width="235" height="157" rx="9" fill="#F4F4F4"/>
<g clip-path="url(#clip0_27_789)">
<path opacity="0.1" d="M88.403 26.3993H76.3103C75.6128 26.3993 75.0474 26.9621 75.0474 27.6565V29.5414C75.0474 30.2357 75.6128 30.7986 76.3103 30.7986H88.403C89.1005 30.7986 89.666 30.2357 89.666 29.5414V27.6565C89.666 26.9621 89.1005 26.3993 88.403 26.3993Z" fill="#50D669"/>
<path opacity="0.1" d="M103.701 30.7985H91.6087C90.9112 30.7985 90.3457 31.3613 90.3457 32.0556V33.9406C90.3457 34.6349 90.9112 35.1977 91.6087 35.1977H103.701C104.399 35.1977 104.964 34.6349 104.964 33.9406V32.0556C104.964 31.3613 104.399 30.7985 103.701 30.7985Z" fill="#50D669"/>
<path opacity="0.1" d="M103.701 24.1996H91.6087C90.9112 24.1996 90.3457 24.7624 90.3457 25.4568V27.3417C90.3457 28.036 90.9112 28.5988 91.6087 28.5988H103.701C104.399 28.5988 104.964 28.036 104.964 27.3417V25.4568C104.964 24.7624 104.399 24.1996 103.701 24.1996Z" fill="#50D669"/>
<path opacity="0.1" d="M120.7 22H108.607C107.91 22 107.344 22.5629 107.344 23.2572V25.1421C107.344 25.8364 107.91 26.3993 108.607 26.3993H120.7C121.397 26.3993 121.963 25.8364 121.963 25.1421V23.2572C121.963 22.5629 121.397 22 120.7 22Z" fill="#50D669"/>
<path opacity="0.1" d="M135.999 26.3993H123.906C123.209 26.3993 122.643 26.9621 122.643 27.6565V29.5414C122.643 30.2357 123.209 30.7986 123.906 30.7986H135.999C136.696 30.7986 137.262 30.2357 137.262 29.5414V27.6565C137.262 26.9621 136.696 26.3993 135.999 26.3993Z" fill="#50D669"/>
<path opacity="0.1" d="M151.297 30.7985H139.204C138.507 30.7985 137.941 31.3613 137.941 32.0556V33.9406C137.941 34.6349 138.507 35.1977 139.204 35.1977H151.297C151.995 35.1977 152.56 34.6349 152.56 33.9406V32.0556C152.56 31.3613 151.995 30.7985 151.297 30.7985Z" fill="#50D669"/>
<path opacity="0.1" d="M151.297 24.1996H139.204C138.507 24.1996 137.941 24.7624 137.941 25.4568V27.3417C137.941 28.036 138.507 28.5988 139.204 28.5988H151.297C151.995 28.5988 152.56 28.036 152.56 27.3417V25.4568C152.56 24.7624 151.995 24.1996 151.297 24.1996Z" fill="#50D669"/>
<path opacity="0.1" d="M73.1046 78.3444H61.012C60.3145 78.3444 59.749 78.9072 59.749 79.6015V81.4864C59.749 82.1808 60.3145 82.7436 61.012 82.7436H73.1046C73.8022 82.7436 74.3676 82.1808 74.3676 81.4864V79.6015C74.3676 78.9072 73.8022 78.3444 73.1046 78.3444Z" fill="#50D669"/>
<path opacity="0.1" d="M120.7 78.3444H108.607C107.91 78.3444 107.344 78.9072 107.344 79.6015V81.4864C107.344 82.1808 107.91 82.7436 108.607 82.7436H120.7C121.397 82.7436 121.963 82.1808 121.963 81.4864V79.6015C121.963 78.9072 121.397 78.3444 120.7 78.3444Z" fill="#50D669"/>
<path opacity="0.1" d="M151.297 87.1429H139.204C138.507 87.1429 137.941 87.7058 137.941 88.4001V90.285C137.941 90.9794 138.507 91.5422 139.204 91.5422H151.297C151.995 91.5422 152.56 90.9794 152.56 90.285V88.4001C152.56 87.7058 151.995 87.1429 151.297 87.1429Z" fill="#50D669"/>
<path d="M169.693 23.5228H48.2256C47.5487 23.5228 47 24.069 47 24.7428V84.0618C47 84.7355 47.5487 85.2817 48.2256 85.2817H169.693C170.369 85.2817 170.918 84.7355 170.918 84.0618V24.7428C170.918 24.069 170.369 23.5228 169.693 23.5228Z" fill="#3F3D56"/>
<path d="M168.327 24.8633H49.8628C49.1859 24.8633 48.6372 25.4095 48.6372 26.0832V82.721C48.6372 83.3948 49.1859 83.941 49.8628 83.941H168.327C169.004 83.941 169.552 83.3948 169.552 82.721V26.0832C169.552 25.4095 169.004 24.8633 168.327 24.8633Z" fill="white"/>
<path opacity="0.1" d="M47 81.5592H170.918V84.0617C170.918 84.3853 170.789 84.6956 170.559 84.9243C170.329 85.1531 170.018 85.2817 169.693 85.2817H48.2256C47.9005 85.2817 47.5888 85.1531 47.359 84.9243C47.1291 84.6956 47 84.3853 47 84.0617V81.5592Z" fill="black"/>
<path d="M67.823 76.9907H59.4938C59.2591 76.9907 59.0688 77.1801 59.0688 77.4137V81.1362C59.0688 81.3698 59.2591 81.5592 59.4938 81.5592H67.823C68.0577 81.5592 68.248 81.3698 68.248 81.1362V77.4137C68.248 77.1801 68.0577 76.9907 67.823 76.9907Z" fill="#090814"/>
<path d="M76.7468 80.8823H71.1373C70.9496 80.8823 70.7974 81.0338 70.7974 81.2207C70.7974 81.4076 70.9496 81.5591 71.1373 81.5591H76.7468C76.9346 81.5591 77.0868 81.4076 77.0868 81.2207C77.0868 81.0338 76.9346 80.8823 76.7468 80.8823Z" fill="#090814"/>
<path d="M65.2138 35.6004C69.6996 36.4244 74.2756 35.6004 78.7428 35.042L92.3194 33.35C92.8684 33.2806 93.6674 32.9541 93.9903 33.6224C94.1722 33.9963 94.0498 34.8068 94.0634 35.2366C94.0991 36.421 94.0957 37.6054 94.0634 38.7898C94.0022 41.0538 93.8356 43.3126 93.6232 45.5664C93.2101 49.9775 92.6254 54.3649 92.333 58.793C92.1834 61.0467 92.1086 63.3073 92.1749 65.5611C92.1902 66.0991 92.2123 66.6372 92.2446 67.1736C92.2803 67.7742 92.5506 68.6659 91.8927 69.0669C91.5171 69.297 90.7776 69.2852 90.3476 69.3529C89.6676 69.4595 88.9877 69.5441 88.2942 69.6134C83.7233 70.0686 79.093 69.8791 74.5051 69.852L60.6514 69.781L57.2721 69.7623C56.9662 69.7623 55.863 69.9451 55.6743 69.583C55.5944 69.429 55.8069 68.7082 55.8443 68.5153C55.8964 68.1972 55.9531 67.8797 56.0143 67.5627C56.4086 65.3377 56.8744 63.1262 57.3435 60.9164C58.3515 56.1788 59.3833 51.4174 59.7981 46.5782C60.0038 44.1502 59.8678 41.7001 60.1194 39.2771C60.2367 38.152 60.376 35.641 61.8804 35.5412C63.1553 35.4566 64.4675 35.5412 65.7458 35.5412C65.8135 35.5412 65.8783 35.5144 65.9261 35.4668C65.9739 35.4192 66.0008 35.3547 66.0008 35.2874C66.0008 35.22 65.9739 35.1555 65.9261 35.1079C65.8783 35.0603 65.8135 35.0336 65.7458 35.0336C64.5389 35.0336 63.3304 35.0014 62.1235 35.0251C61.3212 35.0403 60.7636 35.2298 60.3811 35.9642C59.4037 37.8491 59.504 40.3634 59.4734 42.4209C59.4003 47.3464 58.6405 52.167 57.6512 56.9842C57.1531 59.4089 56.616 61.8251 56.1213 64.2514C55.8885 65.4105 55.6658 66.5729 55.4618 67.7387C55.3666 68.2937 54.8856 69.517 55.3088 70.0263C55.7321 70.5356 57.0342 70.2615 57.6172 70.2649L61.673 70.2886L69.4447 70.3326C74.466 70.3613 79.5043 70.5018 84.5239 70.3546C86.9207 70.2835 89.4535 70.1854 91.7873 69.6151C92.4826 69.4459 92.8174 69.1278 92.8446 68.3901C92.8854 67.2463 92.6985 66.067 92.6747 64.9181C92.5047 55.0874 94.8249 45.3938 94.587 35.5598C94.5717 34.8914 94.8249 33.2062 94.0906 32.8018C93.7608 32.619 93.3325 32.7189 92.9857 32.7595C92.3228 32.8356 91.6615 32.9287 90.9986 33.0065L82.3889 34.0759C79.6369 34.4143 76.8866 34.7797 74.1294 35.0911C71.2108 35.4295 68.2633 35.6308 65.3549 35.0911C65.0336 35.0319 64.8959 35.5209 65.2189 35.5801L65.2138 35.6004Z" fill="#50D669"/>
<path d="M59.8016 41.5817L93.7677 39.9235C94.0958 39.9066 94.0975 39.399 93.7677 39.4159L59.8016 41.0741C59.4752 41.0894 59.4735 41.597 59.8016 41.5817Z" fill="#50D669"/>
<path d="M70.2659 37.3974C70.1709 37.4976 70.102 37.6193 70.065 37.7521C70.0281 37.8849 70.0243 38.0246 70.0539 38.1592C70.0836 38.2938 70.1458 38.4191 70.2352 38.5243C70.3246 38.6295 70.4384 38.7114 70.5668 38.7628C71.0241 38.9709 71.5612 38.7967 72.0151 38.6833C72.695 38.5141 73.3749 38.3635 74.0736 38.24C75.5941 37.972 77.1343 37.8294 78.6784 37.8136C79.3822 37.8051 80.0808 37.8373 80.7845 37.8677C81.2945 37.888 81.8435 37.9286 82.2753 37.6139C82.7682 37.2552 82.928 36.5547 82.4453 36.1182C81.7653 35.5006 80.3001 35.8593 79.5148 35.9236C76.6651 36.1592 73.834 36.5798 71.0394 37.1825C70.7198 37.2501 70.8541 37.7408 71.1754 37.6715C73.0191 37.2755 74.877 36.9574 76.7491 36.7172C77.6693 36.6044 78.5912 36.509 79.5148 36.4312C79.9499 36.3957 80.3851 36.3635 80.8202 36.3381C80.9902 36.328 81.1704 36.3094 81.3438 36.3145C81.8826 36.3263 81.9455 36.2299 81.6226 36.8779C81.3353 37.4515 81.4271 37.3855 80.929 37.3669C80.7182 37.3669 80.5075 37.3432 80.2967 37.3331C79.8649 37.315 79.4332 37.3054 79.0014 37.3043C78.0824 37.3043 77.1656 37.3483 76.2511 37.4363C75.4759 37.5107 74.7025 37.6156 73.9359 37.751C73.4565 37.8356 72.9806 37.9337 72.5063 38.042C72.2972 38.0911 72.0865 38.1418 71.8774 38.1943C71.7771 38.2214 71.6751 38.2451 71.5748 38.2704C71.2031 38.399 70.8864 38.2298 70.6246 37.7628C70.8524 37.5276 70.4937 37.1672 70.2642 37.4041L70.2659 37.3974Z" fill="#50D669"/>
<path d="M76.4225 44.6189C73.9629 44.5241 71.306 45.1857 69.6861 47.1569C68.418 48.6984 67.6956 51.343 69.0384 53.079C70.4816 54.9402 73.6467 54.612 75.5556 53.8184C77.575 52.9724 79.7848 51.2279 80.3917 49.0452C81.1481 46.3194 78.6918 44.2585 76.1336 44.228C76.0659 44.228 76.0011 44.2548 75.9533 44.3024C75.9055 44.35 75.8786 44.4145 75.8786 44.4818C75.8786 44.5491 75.9055 44.6137 75.9533 44.6613C76.0011 44.7089 76.0659 44.7356 76.1336 44.7356C77.592 44.7526 79.0233 45.3752 79.7032 46.7272C80.4155 48.1518 79.8018 49.6476 78.8533 50.788C77.3337 52.6035 74.9573 53.9724 72.5367 53.9335C71.0834 53.9115 69.477 53.4157 69.0265 51.8895C68.656 50.6526 68.9382 49.3007 69.5841 48.2043C70.9814 45.8355 73.8252 45.0334 76.4327 45.135C76.7608 45.1468 76.7608 44.6392 76.4327 44.6273L76.4225 44.6189Z" fill="#50D669"/>
<path d="M73.9802 48.3786C73.8753 48.3399 73.7623 48.3283 73.6517 48.3447C73.5411 48.3612 73.4365 48.4053 73.3476 48.4728C73.2587 48.5404 73.1884 48.6292 73.1433 48.7311C73.0982 48.8329 73.0796 48.9445 73.0895 49.0554C73.1405 49.7153 73.8714 49.9014 74.4205 49.8625C74.8947 49.8219 75.4489 49.6476 75.2823 49.0571C75.2516 48.9526 75.1987 48.8559 75.1271 48.7735C75.0556 48.6912 74.967 48.6252 74.8675 48.5799C74.7154 48.5199 74.5504 48.4995 74.3882 48.5207C74.3253 48.5207 73.749 48.7305 73.9938 48.4784L73.5926 48.426C73.6372 48.4697 73.6713 48.5228 73.6924 48.5813C73.7136 48.6399 73.7213 48.7025 73.715 48.7644C73.7158 48.8086 73.7281 48.8519 73.7507 48.8899C73.7733 48.928 73.8054 48.9596 73.844 48.9816C73.8825 49.0036 73.9262 49.0153 73.9706 49.0155C74.015 49.0156 74.0588 49.0043 74.0975 48.9827C74.1558 48.9584 74.2198 48.9507 74.2822 48.9606C74.3447 48.9705 74.4031 48.9975 74.4509 49.0387C74.4988 49.0798 74.5342 49.1334 74.5531 49.1935C74.5721 49.2535 74.5738 49.3176 74.5581 49.3786C74.5444 49.4372 74.552 49.4987 74.5794 49.5524C74.6068 49.606 74.6524 49.6483 74.7081 49.6717C74.7638 49.6952 74.826 49.6983 74.8837 49.6806C74.9415 49.6629 74.9911 49.6254 75.0239 49.5749C75.1939 49.2703 75.3996 48.6645 75.1446 48.3464C74.9746 48.1316 74.6465 48.1959 74.4426 48.3211C74.3167 48.4098 74.1994 48.51 74.0924 48.6206C73.8867 48.8016 73.7524 48.8862 73.8289 48.5393C73.9564 47.9082 74.5615 47.4057 75.114 47.1536L74.74 46.8676C74.544 47.601 74.1934 48.2845 73.7116 48.8727L74.1468 49.052C74.1344 48.8197 74.1944 48.5892 74.3185 48.3921C74.4427 48.195 74.6249 48.0407 74.8403 47.9505H74.5904L74.723 48.1671C74.6737 48.4869 75.165 48.6239 75.2143 48.3008C75.2789 47.8828 75.0137 47.3397 74.5224 47.5444C73.936 47.7881 73.6317 48.4564 73.6436 49.052C73.6436 49.2551 73.9326 49.4124 74.0805 49.2331C74.6211 48.5793 75.0157 47.8186 75.2381 47.0013C75.2499 46.9528 75.2473 46.9019 75.2306 46.8549C75.2139 46.8079 75.1838 46.7667 75.1439 46.7364C75.1041 46.7061 75.0563 46.6879 75.0063 46.6842C74.9563 46.6805 74.9063 46.6913 74.8624 46.7153C74.3532 46.9445 73.9229 47.3175 73.6249 47.7881C73.4176 48.1265 73.1575 48.6544 73.3683 49.0436C73.4028 49.1058 73.4494 49.1607 73.5054 49.2049C73.5614 49.2491 73.6256 49.2818 73.6944 49.3012C73.7631 49.3205 73.835 49.3261 73.906 49.3176C73.9769 49.3091 74.0455 49.2867 74.1077 49.2517C74.2648 49.1589 74.4084 49.0451 74.5343 48.9133C74.5972 48.8574 74.6669 48.761 74.7502 48.7441C74.825 48.6933 74.8216 48.7221 74.7383 48.8338C74.7372 49.0091 74.6859 49.1805 74.5904 49.3278L75.0562 49.5224C75.0982 49.3644 75.0933 49.1977 75.0421 49.0424C74.9909 48.8872 74.8957 48.75 74.7678 48.6474C74.64 48.5449 74.4851 48.4814 74.3218 48.4646C74.1585 48.4478 73.9938 48.4785 73.8476 48.5529L74.2318 48.7728C74.2398 48.5575 74.1719 48.3462 74.0397 48.1756C74.0196 48.1427 73.9924 48.1146 73.96 48.0936C73.9276 48.0726 73.8909 48.059 73.8526 48.054C73.8143 48.049 73.7753 48.0526 73.7385 48.0645C73.7018 48.0765 73.6682 48.0965 73.6402 48.1231C73.3819 48.3921 73.3326 48.8574 73.6572 49.1062C73.9003 49.2906 74.0193 49.1062 74.2862 49.0639C75.1922 48.9471 74.6635 49.3532 74.344 49.3667C74.2011 49.382 74.0566 49.3717 73.9173 49.3363C73.5626 49.2167 73.5405 49.0627 73.851 48.8744C74.1553 48.9979 74.2862 48.5072 73.987 48.3854L73.9802 48.3786Z" fill="#50D669"/>
<path d="M73.5704 49.3059C73.7794 49.9827 72.9159 50.2061 72.5063 50.4396C72.2188 50.6 71.9681 50.8184 71.7702 51.0808C71.3419 51.6527 71.1821 52.3803 71.041 53.0656C70.9764 53.3854 71.4677 53.5207 71.5339 53.2009C71.6117 52.6974 71.7563 52.2064 71.964 51.7407C72.27 51.135 72.7085 50.9319 73.2797 50.6206C73.8508 50.3093 74.2639 49.827 74.0616 49.1705C73.9664 48.8592 73.4735 48.9929 73.5704 49.3059Z" fill="#50D669"/>
<path d="M74.4202 48.9657C74.2986 48.9824 74.1876 49.0437 74.109 49.1376C74.0304 49.2315 73.9898 49.3512 73.9952 49.4733C73.9952 49.6747 74.1295 49.8032 74.2213 49.964C74.4392 50.2929 74.6054 50.6529 74.7143 51.0317C74.7958 51.3954 74.8757 52.0469 74.6854 52.3853C74.3335 53.013 73.6978 52.8929 73.1555 52.8929C72.6456 52.8929 72.2512 53.0621 72.2682 52.3548C72.2784 51.9572 72.5572 51.5545 72.7781 51.2415L72.3124 51.1806C72.4106 51.6972 72.4624 52.2216 72.4671 52.7474C72.4671 52.9826 72.8291 53.1129 72.9413 52.8743C73.2146 52.302 73.4315 51.7048 73.589 51.0909L73.0875 51.0232L73.1759 52.3091C73.1774 52.364 73.1966 52.417 73.2306 52.4601C73.2647 52.5033 73.3118 52.5344 73.365 52.5489C73.4182 52.5633 73.4747 52.5603 73.5261 52.5402C73.5774 52.5202 73.6209 52.4843 73.6502 52.4377C73.7097 52.3723 73.7533 52.2942 73.7776 52.2093C73.7946 52.1298 73.6383 51.5934 73.5754 51.7846L74.0751 51.8523L74.1108 50.6306L73.6009 50.6983C73.7087 51.0428 73.7411 51.4063 73.696 51.7643C73.6638 52.0469 74.1414 52.1112 74.206 51.832L74.5256 50.1907L74.0598 50.2499C74.1705 50.477 74.201 50.7345 74.1465 50.9809C74.1091 51.3058 74.6191 51.3024 74.6565 50.9809C74.6998 50.644 74.6455 50.3017 74.5001 49.9945C74.4742 49.9521 74.4366 49.9181 74.3917 49.8967C74.3468 49.8753 74.2966 49.8673 74.2472 49.8737C74.1979 49.8802 74.1515 49.9008 74.1137 49.9331C74.0759 49.9653 74.0483 50.0078 74.0343 50.0554L73.713 51.6966L74.2145 51.7643C74.2655 51.361 74.2266 50.9514 74.1006 50.5647C74.0836 50.5064 74.0461 50.4561 73.9951 50.423C73.944 50.3898 73.8827 50.376 73.8223 50.384C73.7618 50.3919 73.7063 50.4212 73.6656 50.4665C73.625 50.5117 73.602 50.57 73.6009 50.6306L73.5652 51.8523C73.5665 51.913 73.5896 51.9712 73.6302 52.0165C73.6709 52.0618 73.7264 52.0912 73.7868 52.0993C73.8473 52.1075 73.9087 52.0939 73.96 52.061C74.0113 52.0282 74.0491 51.9781 74.0666 51.92L74.0938 51.8371C74.1056 51.7939 74.1058 51.7483 74.0945 51.705C74.0832 51.6617 74.0607 51.622 74.0292 51.59C73.5006 51.0181 73.3935 51.9284 73.2099 52.1805L73.6859 52.3091L73.5975 51.0232C73.5788 50.7491 73.1708 50.6645 73.096 50.9555C72.9523 51.5278 72.7531 52.0849 72.5011 52.6188L72.977 52.7474C72.9715 52.1761 72.9146 51.6064 72.807 51.0452C72.7628 50.8117 72.4552 50.8218 72.3413 50.9843C72.0013 51.4716 71.4132 52.5359 71.867 53.1196C72.2631 53.6272 73.5091 53.431 74.0411 53.3988C74.8808 53.3514 75.1851 52.8218 75.2769 52.0333C75.3206 51.6558 75.2994 51.2735 75.214 50.9031C75.1681 50.7034 74.7041 49.4378 74.5647 49.4632C74.8876 49.4039 74.7499 48.9132 74.4287 48.9725L74.4202 48.9657Z" fill="#50D669"/>
<path d="M73.4327 50.1061L72.0405 51.9352L72.4807 52.1907L73.5006 50.722L73.0349 50.5257L72.5266 52.4563C72.5129 52.5149 72.5205 52.5765 72.5479 52.6301C72.5753 52.6837 72.6209 52.726 72.6766 52.7495C72.7322 52.7729 72.7945 52.7761 72.8522 52.7584C72.91 52.7406 72.9596 52.7032 72.9924 52.6526C73.2237 52.2711 73.4833 51.9075 73.7692 51.5646L73.3443 51.3176C73.2301 51.7547 73.0101 52.1573 72.7034 52.4902L73.1301 52.7372C73.1562 52.5034 73.2187 52.2751 73.3154 52.0604C73.4462 51.7677 73.0315 51.5088 72.8751 51.8032C72.7313 52.0714 72.567 52.3282 72.3838 52.5714L72.8496 52.6323L72.9533 52.1501L72.4875 52.0892L72.5623 52.5122C72.5746 52.5547 72.5978 52.5934 72.6296 52.6243C72.6614 52.6553 72.7007 52.6775 72.7438 52.6887C72.7868 52.7 72.832 52.6999 72.875 52.6886C72.918 52.6772 72.9573 52.6549 72.989 52.6238C73.4201 52.1797 73.7658 51.6607 74.0089 51.0926H73.5703C73.6856 51.3041 73.7665 51.5326 73.81 51.7694C73.8712 52.0739 74.2775 51.9606 74.3098 51.7017C74.3828 51.1349 74.4203 50.5642 74.422 49.9927H73.912V51.057C73.912 51.3328 74.3659 51.414 74.4135 51.1247C74.4471 50.868 74.5321 50.6206 74.6633 50.3971H74.2163C74.324 50.5701 74.3828 50.7689 74.3863 50.9724C74.3863 51.0397 74.4131 51.1043 74.4609 51.1519C74.5088 51.1995 74.5736 51.2262 74.6412 51.2262C74.7089 51.2262 74.7737 51.1995 74.8215 51.1519C74.8693 51.1043 74.8962 51.0397 74.8962 50.9724L74.9608 50.634H74.4696C74.5188 50.9335 74.7058 52.6205 74.0412 52.4225C73.929 52.3954 73.8967 52.4022 73.9443 52.4411L74.0956 52.1196L74.4509 51.37L73.9749 51.2415C74.0055 51.59 74.0378 52.0875 73.827 52.3853C73.657 52.6272 73.1335 52.7237 72.8666 52.5815C72.6904 52.4565 72.5398 52.2992 72.4229 52.1179L72.0745 52.4563C72.3567 52.6611 72.8139 53.1636 73.1777 53.1924C73.4547 53.2144 73.6876 52.9859 73.8695 52.8032C74.1485 52.5162 74.366 52.1758 74.5089 51.8027C74.6518 51.4295 74.7171 51.0313 74.7007 50.6323C74.7007 50.565 74.6739 50.5005 74.626 50.4529C74.5782 50.4053 74.5134 50.3785 74.4458 50.3785C74.3781 50.3785 74.3133 50.4053 74.2655 50.4529C74.2176 50.5005 74.1908 50.565 74.1908 50.6323V51.211C74.1908 51.2783 74.2176 51.3429 74.2655 51.3905C74.3133 51.4381 74.3781 51.4648 74.4458 51.4648C74.5134 51.4648 74.5782 51.4381 74.626 51.3905C74.6739 51.3429 74.7007 51.2783 74.7007 51.211V49.7914C74.7007 49.7241 74.6739 49.6595 74.626 49.6119C74.5782 49.5643 74.5134 49.5376 74.4458 49.5376C74.3781 49.5376 74.3133 49.5643 74.2655 49.6119C74.2176 49.6595 74.1908 49.7241 74.1908 49.7914C74.1899 50.1317 74.1603 50.4713 74.1024 50.8066L74.6038 50.8743C74.5639 50.47 74.5452 50.0639 74.5477 49.6577C74.5469 49.5969 74.5242 49.5384 74.4838 49.4929C74.4433 49.4473 74.3877 49.4177 74.3272 49.4095C74.2666 49.4013 74.2051 49.4151 74.1539 49.4482C74.1027 49.4813 74.0651 49.5317 74.048 49.59C73.9715 49.9132 73.878 50.2313 73.7879 50.5477L74.2537 50.4868L74.218 50.3515C74.1942 50.0283 73.6842 50.0266 73.708 50.3515C73.7136 50.4884 73.7496 50.6225 73.8134 50.744C73.912 50.9504 74.2197 50.8777 74.2792 50.6831C74.3761 50.365 74.4628 50.0469 74.5392 49.7254L74.0378 49.6577C74.0352 50.0639 74.054 50.47 74.0939 50.8743C74.1194 51.1349 74.5409 51.2465 74.5936 50.942C74.6615 50.5598 74.6974 50.1727 74.7007 49.7846H74.1908V51.2042H74.7007V50.6256H74.1908C74.2208 51.2639 73.998 51.8884 73.5703 52.365C73.5041 52.4399 73.4325 52.51 73.3562 52.5748C73.2355 52.6898 73.125 52.6729 73.0281 52.5223C72.7867 52.4225 72.5368 52.1653 72.3261 52.0147C72.1153 51.8641 71.8263 52.1619 71.9759 52.3616C72.3669 52.8793 72.9499 53.4563 73.6757 53.2076C74.439 52.9386 74.5426 51.9098 74.4849 51.233C74.4662 51.008 74.1279 50.8557 74.0106 51.1061C73.8406 51.4631 73.6706 51.8184 73.5006 52.1771C73.4126 52.3108 73.3599 52.4645 73.3477 52.6238C73.4038 53.0045 73.8678 52.9419 74.1534 52.9199C75.26 52.837 75.0849 51.2753 74.9574 50.4902C74.9149 50.2296 74.5341 50.2702 74.4661 50.4902C74.4121 50.6448 74.384 50.8071 74.3829 50.9707H74.8928C74.8743 50.6798 74.7926 50.3963 74.6531 50.1399C74.6303 50.1021 74.5981 50.0708 74.5595 50.049C74.5209 50.0273 74.4773 50.0158 74.433 50.0158C74.3887 50.0158 74.3451 50.0273 74.3065 50.049C74.2679 50.0708 74.2357 50.1021 74.2129 50.1399C74.0609 50.4012 73.9583 50.6879 73.9103 50.986L74.4203 51.0536V49.9894C74.4203 49.922 74.3934 49.8575 74.3456 49.8099C74.2978 49.7623 74.2329 49.7356 74.1653 49.7356C74.0977 49.7356 74.0328 49.7623 73.985 49.8099C73.9372 49.8575 73.9103 49.922 73.9103 49.9894C73.9086 50.5608 73.8711 51.1315 73.7981 51.6983L74.2996 51.6306C74.2419 51.354 74.144 51.0872 74.0089 50.8388C73.9861 50.8009 73.9538 50.7696 73.9153 50.7478C73.8767 50.7261 73.8331 50.7147 73.7888 50.7147C73.7444 50.7147 73.7009 50.7261 73.6623 50.7478C73.6237 50.7696 73.5914 50.8009 73.5686 50.8388C73.347 51.3687 73.0282 51.8529 72.6286 52.2668L73.0553 52.3785L72.9805 51.9555C72.9414 51.7305 72.6218 51.7237 72.5147 51.8946C72.4303 52.0218 72.3729 52.1649 72.3463 52.3151C72.3197 52.4653 72.3244 52.6193 72.3601 52.7677C72.4025 53.0079 72.7085 52.9825 72.8258 52.8286C73.009 52.586 73.1732 52.3297 73.3171 52.0621L72.8768 51.8049C72.7593 52.0577 72.6791 52.3262 72.6388 52.6018C72.6082 52.8252 72.8751 53.0587 73.0655 52.8489C73.4309 52.4509 73.6955 51.9717 73.8372 51.4513C73.9001 51.2212 73.5805 51.0029 73.4106 51.2042C73.0978 51.5773 72.8137 51.9732 72.5606 52.3886L73.0264 52.5849L73.5448 50.6611C73.5585 50.6025 73.551 50.5409 73.5236 50.4873C73.4961 50.4337 73.4506 50.3914 73.3949 50.3679C73.3392 50.3445 73.277 50.3413 73.2192 50.3591C73.1615 50.3768 73.1118 50.4142 73.0791 50.4648L72.0592 51.9352C71.8688 52.2076 72.3057 52.4428 72.4994 52.1907L73.8865 50.3633C74.0837 50.1027 73.6417 49.8557 73.4462 50.1061H73.4327Z" fill="#50D669"/>
<path d="M95.1192 56.2126C97.159 54.9706 98.7806 53.1179 100.582 51.568C102.537 49.8878 104.589 48.3227 106.702 46.8404C110.805 43.964 115.114 41.3904 119.42 38.8236C119.476 38.7885 119.516 38.7332 119.531 38.6693C119.547 38.6055 119.537 38.5381 119.504 38.4813C119.471 38.4245 119.417 38.3828 119.353 38.3649C119.29 38.347 119.222 38.3544 119.163 38.3854C114.858 40.9522 110.547 43.5207 106.443 46.4022C104.507 47.7558 102.617 49.1907 100.805 50.7135C98.8333 52.3717 97.0774 54.4359 94.8557 55.7743C94.5752 55.9435 94.8319 56.3835 95.1123 56.2126H95.1192Z" fill="#50D669"/>
<path d="M126.003 30.9423C123.794 31.1656 121.414 31.7257 120.054 33.6495C118.879 35.3043 118.905 38.1909 120.008 39.8897C121.261 41.8203 123.821 41.8897 125.81 41.2653C127.798 40.6409 129.857 39.5462 129.838 37.1808C129.828 35.9117 129.367 34.5903 128.859 33.4397C128.42 32.4465 127.644 31.5785 126.467 31.6884C126.143 31.7189 126.139 32.2265 126.467 32.1961C128.043 32.0505 128.55 33.9135 128.924 35.0894C129.264 36.1875 129.578 37.487 129.044 38.5784C128.511 39.6697 127.224 40.2264 126.124 40.6257C124.934 41.0555 123.627 41.3177 122.384 40.9641C119.923 40.2788 119.243 37.174 119.952 34.971C120.768 32.4329 123.658 31.6868 126.012 31.4499C126.335 31.4177 126.338 30.9101 126.012 30.9423H126.003Z" fill="#50D669"/>
<path d="M129.403 50.5698C127.193 50.7932 124.814 51.3532 123.454 53.2771C122.279 54.9319 122.305 57.8185 123.408 59.5172C124.661 61.4478 127.221 61.5172 129.209 60.8929C131.198 60.2685 133.257 59.1738 133.238 56.8083C133.228 55.5393 132.767 54.2178 132.259 53.0672C131.82 52.074 131.044 51.206 129.867 51.316C129.543 51.3465 129.539 51.8541 129.867 51.8236C131.443 51.6781 131.95 53.541 132.324 54.717C132.664 55.8151 132.978 57.1146 132.444 58.2059C131.91 59.2973 130.624 59.854 129.524 60.2533C128.334 60.683 127.027 60.9453 125.784 60.5917C123.323 59.9064 122.643 56.8015 123.352 54.5985C124.168 52.0605 127.057 51.3143 129.412 51.0774C129.735 51.0453 129.738 50.5377 129.412 50.5698H129.403Z" fill="#50D669"/>
<path d="M122.67 35.8847L124.28 37.7121C124.312 37.7427 124.351 37.7646 124.394 37.7757C124.437 37.7867 124.482 37.7865 124.525 37.7751C124.568 37.7637 124.607 37.7414 124.638 37.7105C124.67 37.6796 124.693 37.6411 124.705 37.5988C125.045 36.7088 124.981 35.7866 125.06 34.8509C125.149 33.8838 125.392 32.9371 125.783 32.0472C126.567 30.2422 127.897 28.7253 129.587 27.7072C129.868 27.538 129.611 27.0981 129.33 27.269C127.664 28.268 126.327 29.73 125.484 31.4753C125.071 32.3246 124.785 33.2292 124.634 34.1606C124.464 35.2587 124.618 36.4093 124.211 37.4634L124.637 37.35L123.036 35.526C122.818 35.2807 122.46 35.6411 122.676 35.8847H122.67Z" fill="#50D669"/>
<path d="M95.94 58.1907C104.708 57.9245 113.478 57.8681 122.25 58.0215C122.318 58.0215 122.383 57.9948 122.43 57.9472C122.478 57.8996 122.505 57.835 122.505 57.7677C122.505 57.7004 122.478 57.6359 122.43 57.5883C122.383 57.5407 122.318 57.5139 122.25 57.5139C113.48 57.3583 104.71 57.4147 95.94 57.6831C95.612 57.6933 95.6103 58.2009 95.94 58.1907Z" fill="#50D669"/>
<path d="M124.083 53.1856C127.08 54.3566 129.963 55.7986 132.696 57.4935C132.974 57.6627 133.231 57.2279 132.952 57.0553C130.184 55.3394 127.262 53.8804 124.225 52.6966C123.921 52.5765 123.788 53.0672 124.091 53.1856H124.083Z" fill="#50D669"/>
<path d="M129.526 50.8862C126.486 54.4131 124.726 58.8543 124.527 63.4968C124.513 63.8234 125.023 63.8234 125.037 63.4968C125.23 58.9876 126.937 54.6733 129.886 51.2449C130.099 50.9979 129.74 50.6375 129.526 50.8862Z" fill="#50D669"/>
<path d="M61.5406 56.3481L80.5397 56.101L82.724 56.0723C83.1166 56.0723 83.5093 56.0587 83.9019 56.057C84.4544 56.057 84.8267 56.5139 84.8165 57.0722C84.791 58.2567 84.043 58.2144 83.0639 58.2567L80.7028 58.3633L71.0886 58.7846C69.3666 58.8607 67.643 58.9538 65.9211 59.013C64.3674 59.0604 61.4131 58.5562 62.1032 56.3058C62.1984 55.9927 61.7072 55.8591 61.6103 56.1704C61.2703 57.277 61.8721 58.4005 62.841 58.9809C64.2161 59.8032 66.0282 59.524 67.5461 59.4563L79.3498 58.9233L82.2157 58.7964C82.95 58.7626 83.9716 58.9115 84.6465 58.5714C85.4386 58.1738 85.578 56.5951 85.0782 55.9301C84.8216 55.5917 84.4612 55.5613 84.0583 55.546C83.001 55.5054 81.925 55.5748 80.866 55.5883L74.9812 55.6662L61.5338 55.8354C61.4662 55.8354 61.4013 55.8621 61.3535 55.9097C61.3057 55.9573 61.2788 56.0219 61.2788 56.0892C61.2788 56.1565 61.3057 56.2211 61.3535 56.2687C61.4013 56.3162 61.4662 56.343 61.5338 56.343L61.5406 56.3481Z" fill="#50D669"/>
<path d="M138.302 118.53C137.874 118.797 137.384 118.948 136.942 119.183C136.5 119.418 136.07 119.772 135.944 120.259C135.897 120.41 135.905 120.573 135.966 120.719C136.076 120.896 136.245 121.029 136.442 121.095C137.34 121.492 138.31 121.702 139.292 121.713C140.275 121.725 141.249 121.536 142.156 121.159C142.475 121.007 142.804 120.877 143.141 120.77C143.557 120.686 143.98 120.643 144.404 120.642C144.85 120.616 145.294 120.559 145.732 120.472C145.952 120.448 146.161 120.362 146.334 120.224C146.491 120.043 146.586 119.816 146.604 119.577C146.805 118.259 146.502 116.914 145.754 115.807C145.66 115.652 145.534 115.519 145.384 115.417C145.201 115.323 144.999 115.269 144.794 115.259C143.944 115.156 143.053 114.967 142.195 114.946C141.579 114.933 141.27 115.224 140.835 115.645C139.936 116.54 139.41 117.841 138.302 118.53Z" fill="#323444"/>
<path d="M150.828 118.405C150.828 119.234 150.928 120.112 151.433 120.774C151.664 121.06 151.944 121.303 152.259 121.493C153.327 122.17 154.741 122.418 155.866 121.845C156.048 121.763 156.204 121.633 156.315 121.469C156.485 121.175 156.395 120.807 156.3 120.483L154.671 114.865C153.619 115.026 152.072 115.139 151.138 115.671C150.459 116.055 150.828 117.664 150.828 118.405Z" fill="#323444"/>
<path d="M137.347 83.8146C137.248 84.1243 136.891 84.2681 136.696 84.5287C136.466 84.8349 136.49 85.2596 136.573 85.6319C136.676 86.1808 136.935 86.6888 137.32 87.0955C137.515 87.2969 137.755 87.4491 138.021 87.5391C138.287 87.6292 138.571 87.6546 138.849 87.6132C139.124 87.5628 139.374 87.424 139.562 87.2183C139.749 87.0126 139.864 86.7513 139.888 86.4745C139.878 86.2229 139.824 85.9749 139.728 85.7419L138.569 82.4052C138.568 82.3815 138.56 82.3585 138.547 82.3389C138.534 82.3192 138.515 82.3038 138.493 82.2942C138.471 82.2847 138.447 82.2815 138.424 82.2849C138.4 82.2884 138.378 82.2984 138.36 82.3138C138.086 82.4424 137.537 82.5778 137.377 82.8603C137.218 83.1429 137.462 83.5084 137.347 83.8146Z" fill="#FBB3B2"/>
<path d="M136.804 83.6471C137.227 83.5811 137.598 83.3341 137.994 83.1717C138.39 83.0092 138.887 82.9466 139.22 83.2173C139.315 83.2952 139.407 83.4018 139.531 83.4001C139.362 82.5727 139.107 81.7652 138.769 80.9906C138.757 80.9535 138.734 80.921 138.703 80.8976C138.657 80.8789 138.605 80.8789 138.558 80.8976L137.414 81.1954C136.991 81.3054 136.942 81.2715 136.974 81.6861C136.983 81.8705 137.078 83.6471 136.804 83.6471Z" fill="#323444"/>
<path d="M136.678 59.5528C136.508 59.8133 136.508 60.1382 136.508 60.4445C136.508 61.9419 136.524 63.4478 136.746 64.93C136.799 65.2854 136.865 65.6407 136.899 65.9994C136.938 66.4987 136.946 66.9999 136.923 67.5002L136.753 74.0145C136.733 74.8114 136.692 75.6676 136.197 76.2937C136.047 76.5035 135.977 76.7595 135.998 77.0162C136.128 78.6507 136.4 80.2716 136.67 81.8875C137.105 81.6921 137.581 81.602 138.057 81.6247C138.534 81.6473 138.999 81.782 139.413 82.0178C140.271 79.3335 140.745 76.5426 140.823 73.7269C140.862 72.3411 140.802 70.9469 141.016 69.578C141.375 67.2735 141.229 64.9097 140.965 62.5916C140.882 61.8573 140.705 61.101 140.233 60.5325C139.785 60.035 139.19 59.6934 138.533 59.5579C137.904 59.3937 137.341 59.5629 136.678 59.5528Z" fill="#5B5583"/>
<path opacity="0.1" d="M136.678 59.5528C136.508 59.8133 136.508 60.1382 136.508 60.4445C136.508 61.9419 136.524 63.4478 136.746 64.93C136.799 65.2854 136.865 65.6407 136.899 65.9994C136.938 66.4987 136.946 66.9999 136.923 67.5002L136.753 74.0145C136.733 74.8114 136.692 75.6676 136.197 76.2937C136.047 76.5035 135.977 76.7595 135.998 77.0162C136.128 78.6507 136.4 80.2716 136.67 81.8875C137.105 81.6921 137.581 81.602 138.057 81.6247C138.534 81.6473 138.999 81.782 139.413 82.0178C140.271 79.3335 140.745 76.5426 140.823 73.7269C140.862 72.3411 140.802 70.9469 141.016 69.578C141.375 67.2735 141.229 64.9097 140.965 62.5916C140.882 61.8573 140.705 61.101 140.233 60.5325C139.785 60.035 139.19 59.6934 138.533 59.5579C137.904 59.3937 137.341 59.5629 136.678 59.5528Z" fill="black"/>
<path d="M138.755 78.4442C137.615 84.2596 138.238 90.281 140.544 95.7435C140.743 96.1478 140.883 96.5786 140.958 97.0226C141.052 97.8517 140.668 98.6487 140.449 99.4507C139.939 101.275 140.233 103.217 140.559 105.083C140.695 105.862 140.835 106.64 140.979 107.417C141.12 108.175 141.256 108.999 140.902 109.686C141.207 110.948 141.387 112.198 141.691 113.461C141.723 113.561 141.733 113.666 141.72 113.77C141.659 113.935 141.551 114.079 141.409 114.185C141.182 114.414 141.019 114.697 140.936 115.008C140.853 115.319 140.852 115.646 140.935 115.956C141.711 115.401 142.794 115.596 143.682 115.956C144.569 116.317 145.443 116.802 146.401 116.802C146.262 115.682 146.128 114.506 146.542 113.456C146.784 112.846 147.209 112.271 147.197 111.62C147.185 111.036 146.826 110.515 146.74 109.938C146.707 109.579 146.721 109.217 146.78 108.862C147.008 106.791 146.75 104.699 146.491 102.632C146.462 102.224 146.366 101.824 146.206 101.447C146.085 101.204 145.905 100.97 145.908 100.698C145.908 100.381 146.165 100.124 146.26 99.8229C146.43 99.268 146.117 98.5133 146.588 98.1698C147.829 97.2629 147.353 95.0971 147.326 93.5658C147.305 92.2449 147.248 90.9251 147.156 89.6065C147.937 91.7932 148.257 94.1169 148.094 96.4321C148.04 97.1901 147.94 97.9871 148.237 98.6876C148.465 99.2256 148.917 99.669 149.039 100.239C149.116 100.591 149.062 100.955 149.079 101.314C149.096 101.672 149.218 102.063 149.529 102.244C149.553 103.875 149.699 105.62 149.725 107.251C149.708 108.085 149.776 108.918 149.929 109.738C150.005 109.999 150.047 110.269 150.054 110.54C150.016 110.881 149.925 111.213 149.786 111.527C149.489 112.4 149.412 113.332 149.56 114.242C149.708 115.151 150.077 116.011 150.636 116.747C151.037 116.038 151.873 115.662 152.689 115.603C153.505 115.544 154.311 115.748 155.101 115.955C154.98 114.966 155.178 113.965 155.665 113.095C155.796 112.899 155.896 112.685 155.963 112.459C156.055 112.029 155.841 111.601 155.725 111.176C155.536 110.5 155.603 109.77 155.647 109.063C155.795 106.694 155.69 104.317 155.332 101.97C155.277 101.508 155.168 101.054 155.008 100.616C154.946 100.461 154.872 100.312 154.821 100.155C154.74 99.8723 154.695 99.5814 154.685 99.2883L154.489 96.581C154.351 94.6843 154.977 92.8112 155.414 90.9601C155.609 90.131 155.822 89.3036 155.953 88.461C156.131 87.3138 156.16 86.1412 156.422 85.0093C156.656 83.9941 157.08 83.0042 157.168 81.9636C157.304 80.3511 156.631 78.7928 155.978 77.3139C155.706 76.7048 154.678 76.7657 154.017 76.6574C149.327 75.8909 144.387 75.8859 139.964 77.6134C139.507 77.8021 139.095 78.0852 138.755 78.4442Z" fill="#3C354C"/>
<path d="M142.137 48.4125L142.657 50.426C142.798 50.8878 142.877 51.3664 142.89 51.849C142.895 52.0251 142.856 52.1996 142.776 52.3566C142.69 52.4856 142.581 52.597 142.453 52.6849C142.098 52.9539 141.851 53.5817 141.445 53.7678C141.654 54.1299 141.943 53.8947 142.32 54.0757C142.985 54.3972 143.593 54.8591 144.314 55.0182C144.994 55.1671 145.708 55.0266 146.383 54.849C147.34 54.5901 148.292 54.2331 149.062 53.6087C149.832 52.9844 150.27 52.4328 150.267 51.4463C149.417 51.5461 148.661 50.6917 148.285 49.9235C148.155 49.6315 148.059 49.3255 147.999 49.0115L147.544 47.0166C147.047 47.1249 146.643 47.4785 146.169 47.663C145.694 47.8474 145.133 47.8643 144.607 47.888C143.671 47.9303 142.741 48.0503 141.826 48.2467C141.7 48.2721 141.542 48.3516 141.572 48.4734" fill="#FBB3B2"/>
<path opacity="0.1" d="M142.137 48.4125L142.657 50.426C142.798 50.8878 142.877 51.3664 142.89 51.849C142.895 52.0251 142.856 52.1996 142.776 52.3566C142.69 52.4856 142.581 52.597 142.453 52.6849C142.098 52.9539 141.851 53.5817 141.445 53.7678C141.654 54.1299 141.943 53.8947 142.32 54.0757C142.985 54.3972 143.593 54.8591 144.314 55.0182C144.994 55.1671 145.708 55.0266 146.383 54.849C147.34 54.5901 148.292 54.2331 149.062 53.6087C149.832 52.9844 150.27 52.4328 150.267 51.4463C149.417 51.5461 148.661 50.6917 148.285 49.9235C148.155 49.6315 148.059 49.3255 147.999 49.0115L147.544 47.0166C147.047 47.1249 146.643 47.4785 146.169 47.663C145.694 47.8474 145.133 47.8643 144.607 47.888C143.671 47.9303 142.741 48.0503 141.826 48.2467C141.7 48.2721 141.542 48.3516 141.572 48.4734" fill="black"/>
<path d="M144.37 49.5225C146.856 49.5225 148.871 47.5165 148.871 45.042C148.871 42.5675 146.856 40.5615 144.37 40.5615C141.884 40.5615 139.869 42.5675 139.869 45.042C139.869 47.5165 141.884 49.5225 144.37 49.5225Z" fill="#FBB3B2"/>
<path d="M145.61 52.4277C145.851 51.9102 146.198 51.449 146.63 51.0741C147.264 50.5208 148.131 50.0724 148.28 49.2467L149.654 50.8389C149.728 50.9127 149.786 51.0016 149.824 51.0995C149.841 51.1913 149.838 51.2857 149.816 51.3765C149.794 51.4672 149.752 51.5522 149.695 51.6257C149.355 52.1654 148.819 52.5512 148.313 52.9421C147.152 53.8575 146.04 54.8335 144.983 55.8659C144.936 55.9198 144.874 55.9577 144.804 55.9742C144.738 55.976 144.674 55.9577 144.619 55.9217C143.706 55.4449 142.899 54.7914 142.244 53.9996C142.195 53.9404 142.134 53.8727 142.054 53.8778C142.006 53.8866 141.961 53.9096 141.926 53.9438C141.469 54.316 140.969 54.761 140.383 54.7035C141.143 54.1603 141.573 53.2534 141.732 52.3346C141.764 52.0202 141.829 51.7099 141.926 51.4091C141.977 51.2586 142.063 51.1228 142.179 51.0136C142.295 50.9044 142.436 50.8252 142.589 50.7831C142.219 51.3465 142.472 52.1451 142.97 52.6003C143.454 53.0091 144.034 53.2892 144.656 53.4142C145.234 53.5225 145.404 52.871 145.61 52.4277Z" fill="#323444"/>
<path d="M139.753 78.9045C140.394 79.0619 141.001 79.3292 141.623 79.5272C142.757 79.8806 143.95 80.0055 145.133 79.8943C145.497 79.8864 145.851 79.7742 146.153 79.5712C146.233 79.5069 146.306 79.4307 146.391 79.3715C146.533 79.2866 146.687 79.2233 146.848 79.1837C148.407 78.6981 149.713 77.6507 150.979 76.6254C151.02 76.5915 151.066 76.5492 151.062 76.4951C151.056 76.4582 151.039 76.4243 151.011 76.3986L150.345 75.6372C148.598 75.9333 146.808 75.8216 145.035 75.7776C144.671 75.7616 144.306 75.7712 143.943 75.8064C143.593 75.847 143.248 75.935 142.903 76.0095C141.592 76.2937 140.253 76.402 138.925 76.5881C138.833 76.5949 138.742 76.6227 138.662 76.6693C138.606 76.7124 138.558 76.7652 138.521 76.825L138.055 77.4764C137.874 77.6956 137.741 77.9497 137.664 78.2226C137.555 78.7302 137.783 78.8994 138.217 78.8334C138.729 78.7588 139.25 78.783 139.753 78.9045Z" fill="#323444"/>
<path d="M144.964 55.0909C144.444 54.5605 143.854 54.1024 143.211 53.7288C142.951 53.5646 142.663 53.4498 142.361 53.3904C142.209 53.3606 142.053 53.3642 141.902 53.401C141.752 53.4379 141.611 53.507 141.491 53.6036C141.339 53.7373 141.244 53.9234 141.098 54.0638C140.914 54.2177 140.703 54.3364 140.476 54.4141C139.702 54.7432 138.969 55.1593 138.29 55.6543C137.92 55.912 137.587 56.2182 137.299 56.5647C136.529 57.546 136.413 58.881 136.434 60.1264C136.449 60.9927 137.284 61.6357 137.858 62.2837C138.397 62.9214 138.885 63.6003 139.317 64.3141C139.626 64.8014 139.949 65.3293 139.91 65.9097C139.878 66.3852 139.599 66.8319 139.643 67.3056C139.658 67.4748 139.713 67.6305 139.728 67.7946C139.759 68.133 139.624 68.4714 139.59 68.8098C139.544 69.2887 139.701 69.7641 139.709 70.2464C139.703 70.5765 139.661 70.905 139.584 71.226C139.257 72.7726 138.848 74.3275 138.931 75.9062L137.989 76.0754C138.078 76.1624 138.146 76.2691 138.186 76.3869C138.226 76.5046 138.237 76.6301 138.22 76.7532C138.202 76.8763 138.155 76.9935 138.084 77.0953C138.012 77.1971 137.917 77.2807 137.807 77.3393C139.278 77.8283 140.867 77.5813 142.426 77.5796C143.716 77.5796 145.001 77.7488 146.289 77.7251C147.578 77.7014 148.907 77.4696 149.97 76.7437C150.259 76.5475 150.524 76.3174 150.828 76.1465C151.236 75.9362 151.675 75.7934 152.128 75.7234C152.969 75.5639 153.823 75.488 154.678 75.4967C155.096 75.4967 155.552 75.5136 155.885 75.2632C156.252 74.9857 156.346 74.4832 156.395 74.028C156.444 73.5475 156.475 73.0653 156.483 72.5831C156.498 72.2075 156.478 71.8315 156.424 71.4595C156.373 71.1876 156.306 70.9187 156.225 70.6541L155.584 68.4071C155.319 67.4799 155.688 66.463 155.766 65.5019C155.785 65.2752 155.788 65.0112 155.613 64.8657C155.55 64.8133 155.463 64.7777 155.443 64.6965C155.434 64.658 155.433 64.6179 155.44 64.5789C155.447 64.5399 155.462 64.5028 155.484 64.4698C155.824 63.793 156.334 63.1957 156.8 62.5849C157.582 61.5134 158.308 60.4026 158.975 59.2567C158.766 56.8588 157.752 54.6009 156.096 52.8473C155.772 52.4592 155.359 52.1554 154.891 51.9624C154.58 51.8678 154.257 51.816 153.932 51.8084C152.599 51.7187 151.212 51.6392 150.051 50.9725C149.968 50.9151 149.874 50.8753 149.774 50.8558C149.517 50.827 149.33 51.0791 149.164 51.2788C148.735 51.7864 148.105 52.0774 147.551 52.4513C146.517 53.1502 145.71 54.1112 144.964 55.0909Z" fill="#5B5583"/>
<path d="M159.091 59.9487C159.356 60.7845 159.33 61.6779 159.417 62.5493C159.469 63.0752 159.561 63.5962 159.694 64.1077C159.755 64.3888 159.864 64.6573 160.017 64.9012C160.17 65.1246 160.389 65.3056 160.486 65.5577C160.539 65.7285 160.563 65.907 160.556 66.0857L160.576 67.2532C160.62 67.8718 160.525 68.4924 160.299 69.0704L159.567 71.2886C159.171 72.49 158.764 73.7099 158.05 74.7556C157.95 74.9326 157.798 75.0748 157.614 75.1634C157.47 75.2012 157.322 75.2239 157.173 75.231C156.914 75.2771 156.679 75.4115 156.509 75.6113C156.339 75.8111 156.244 76.0638 156.24 76.3258C156.07 76.0784 155.858 75.8625 155.613 75.6879L154.122 74.5035C153.612 74.0906 153.08 73.671 152.461 73.4324C153.294 73.1737 154.032 72.6801 154.588 72.0115C155.144 71.3429 155.493 70.5281 155.593 69.666C155.592 69.4093 155.65 69.1559 155.763 68.9249C155.887 68.7252 156.116 68.5729 156.133 68.3377C156.153 68.0416 155.817 67.8183 155.817 67.5222C155.817 67.3259 155.963 67.1635 156.028 66.979C156.088 66.7511 156.088 66.5115 156.028 66.2836L155.822 65.1466C155.81 65.0327 155.775 64.9222 155.72 64.8217C155.643 64.7253 155.558 64.6359 155.465 64.5544C155.111 64.1601 155.268 63.5392 155.465 63.0535C155.918 61.9756 156.501 60.9568 157.202 60.0197C157.452 59.7051 157.683 59.3763 157.894 59.035C158.074 58.7237 158.115 58.2922 158.305 58.0198C158.55 58.6594 158.882 59.2905 159.091 59.9487Z" fill="#5B5583"/>
<path d="M152.409 73.5018C152.333 73.5579 152.267 73.6266 152.215 73.7049C152.015 73.9552 151.748 74.1445 151.445 74.2514C151.615 74.3732 151.769 74.4934 151.929 74.6169C153.112 75.5257 154.194 76.5562 155.159 77.6913C155.266 77.3106 155.907 77.3377 156.063 76.9739C156.1 76.8698 156.112 76.7584 156.097 76.649C156.065 76.079 155.983 75.5129 155.853 74.957C155.801 74.6708 155.685 74.4 155.513 74.1651C155.275 73.8792 154.904 73.7421 154.55 73.6237C154.015 73.4375 152.953 73.1753 152.409 73.5018Z" fill="#323444"/>
<path d="M150.284 74.8317C149.774 75.2073 149.327 75.6777 148.754 75.9349C148.349 76.1177 147.889 76.1972 147.535 76.4696C147.727 76.8909 148.227 77.1092 148.691 77.0923C149.156 77.0468 149.601 76.8844 149.985 76.6202C150.289 76.4341 150.646 76.2175 150.977 76.3478C151.028 76.605 150.807 76.8469 150.807 77.1075C150.807 77.3681 151.025 77.5576 151.239 77.6946C152.259 78.3494 153.571 78.2953 154.787 78.2191C154.856 78.2217 154.925 78.2015 154.982 78.1616C155.008 78.131 155.029 78.0955 155.041 78.0572C155.054 78.0189 155.058 77.9784 155.055 77.9383C155.071 77.6709 155.077 77.4053 155.079 77.1379C155.113 76.9224 155.085 76.7015 154.998 76.5013C154.911 76.3011 154.768 76.1299 154.586 76.0077C153.927 75.4433 153.215 74.942 152.461 74.5102C151.713 74.0788 150.955 74.3343 150.284 74.8317Z" fill="#FBB3B2"/>
<path d="M145.951 43.1689C145.196 43.2586 144.647 43.8457 144.724 44.4836C144.8 45.1215 145.474 45.5614 146.228 45.4701C146.983 45.3787 147.532 44.7933 147.456 44.1571C147.379 43.5209 146.706 43.0792 145.951 43.1689ZM146.208 45.2941C145.569 45.3702 144.999 44.9963 144.933 44.4582C144.867 43.9202 145.334 43.4227 145.972 43.3466C146.609 43.2704 147.18 43.6444 147.246 44.1824C147.313 44.7205 146.845 45.218 146.208 45.2941Z" fill="#3C354C"/>
<path d="M142.273 43.6088C141.518 43.6985 140.969 44.2856 141.046 44.9218C141.122 45.558 141.795 45.9996 142.55 45.91C143.305 45.8203 143.854 45.2331 143.777 44.5953C143.701 43.9574 143.028 43.5191 142.273 43.6088ZM142.53 45.7323C141.891 45.8084 141.321 45.4345 141.256 44.8981C141.192 44.3618 141.656 43.8626 142.295 43.7848C142.934 43.7069 143.504 44.0826 143.568 44.6206C143.633 45.1587 143.167 45.6562 142.53 45.7323Z" fill="#3C354C"/>
<path d="M139.541 43.9353L141.181 44.2839L141.02 44.7136L139.473 44.2619L139.541 43.9353Z" fill="#3C354C"/>
<path d="M148.684 42.8424L147.171 43.5683L147.431 43.9473L148.827 43.1436L148.684 42.8424Z" fill="#3C354C"/>
<path d="M143.625 44.1756L144.776 44.0386L144.717 44.3228L143.729 44.3888L143.625 44.1756Z" fill="#3C354C"/>
<path d="M141.394 43.7916C141.502 43.5597 141.56 43.3078 141.564 43.0522C141.568 42.8992 141.594 42.7475 141.642 42.6021C141.725 42.4173 141.852 42.2554 142.012 42.13C142.543 41.6833 143.302 41.4532 144.052 41.421C144.869 41.3836 145.683 41.5585 146.411 41.9286C146.634 42.0325 146.834 42.1798 146.998 42.3618C147.236 42.6511 147.287 43.0251 147.527 43.311C147.69 43.4845 147.896 43.6131 148.124 43.6842C148.352 43.7554 148.595 43.7667 148.829 43.7171C148.912 43.4227 148.803 43.1114 148.846 42.8102C148.913 42.5521 149.003 42.3007 149.116 42.0589C149.379 41.2857 148.995 40.3889 148.203 39.927C147.926 39.7578 147.598 39.6478 147.391 39.4194C147.183 39.191 147.134 38.9541 146.991 38.7256C146.612 38.1216 145.631 37.839 144.885 38.1182C144.65 38.2062 144.443 38.3399 144.205 38.4346C143.763 38.6157 143.26 38.6478 142.774 38.7087C142.295 38.7528 141.826 38.8752 141.387 39.0708C140.967 39.2772 140.615 39.6089 140.518 40.0048C140.472 40.1876 140.482 40.3771 140.437 40.5581C140.202 41.4769 138.687 41.9236 138.602 42.861C138.572 43.1994 138.757 43.5242 138.988 43.8C139.148 43.9878 139.531 44.4904 139.801 44.5631C140.071 44.6359 140.277 44.3804 140.535 44.2924C140.943 44.1655 141.19 44.1384 141.394 43.7916Z" fill="#CBCEDA"/>
<path d="M167.416 109.944C167.416 116.323 171.436 121.486 176.405 121.486L167.416 109.944Z" fill="#46455B"/>
<path d="M175.725 121.242C175.725 114.79 180.212 109.57 185.757 109.57L175.725 121.242Z" fill="#50D669"/>
<path d="M170.673 110.523C170.673 116.583 173.237 121.487 176.405 121.487L170.673 110.523Z" fill="#50D669"/>
<path d="M75.0474 112.797C75.0474 117.331 77.9021 120.994 81.4309 120.994L75.0474 112.797Z" fill="#46455B"/>
<path d="M77.3604 113.209C77.3604 117.516 79.1822 120.996 81.4311 120.996L77.3604 113.209Z" fill="#50D669"/>
<path d="M81.4312 120.994C81.4312 116.254 84.4135 112.418 88.0983 112.418L81.4312 120.994Z" fill="#46455B"/>
<path d="M188 120.996H65.6963V121.487H188V120.996Z" fill="#3F3D56"/>
</g>
<defs>
<clipPath id="clip0_27_789">
<rect width="141" height="100.164" fill="white" transform="translate(47 22)"/>
</clipPath>
</defs>
</svg>
