<svg width="235" height="157" viewBox="0 0 235 157" fill="none" xmlns="http://www.w3.org/2000/svg">
<rect width="235" height="157" rx="9" fill="#F4F4F4"/>
<g clip-path="url(#clip0_27_680)">
<path d="M172.494 135.454C172.545 137.848 172.213 140.235 171.512 142.526C171.487 142.609 171.458 142.692 171.428 142.775H156.969C157.175 141.761 157.504 140.775 157.946 139.839C159.149 137.294 161.114 135.116 163.054 132.953C165.726 129.973 168.334 127.017 168.747 123.141C169.806 124.75 170.651 126.488 171.261 128.314C170.514 128.59 169.828 129.009 169.243 129.547C169.081 129.699 168.909 129.919 168.992 130.129C169.071 130.306 169.287 130.364 169.478 130.403C169.94 130.492 170.402 130.58 170.864 130.663C171.227 130.736 171.595 130.805 171.964 130.873C172.287 132.38 172.465 133.914 172.494 135.454Z" fill="#F2F2F2"/>
<path d="M184.64 133.868C182.322 135.273 180.849 137.446 179.645 139.878C178.598 140.116 177.631 140.622 176.841 141.346C176.674 141.498 176.502 141.718 176.59 141.929C176.664 142.105 176.885 142.164 177.076 142.203C177.533 142.291 178 142.379 178.457 142.462C178.412 142.565 178.368 142.673 178.324 142.775H163C163.696 141.841 164.466 140.963 165.304 140.152C165.485 139.971 165.672 139.8 165.863 139.624C167.817 137.865 170.06 136.454 172.494 135.454C176.329 133.857 180.522 133.309 184.64 133.868Z" fill="#F2F2F2"/>
<path d="M165.554 142.775H151.91C151.835 141.687 151.842 140.594 151.929 139.506C152.225 136.139 153.249 132.876 154.933 129.942C156.616 127.008 158.917 124.472 161.679 122.51C160.972 125.02 161.335 127.516 162.072 130.022C161.969 130.056 161.865 130.085 161.772 130.125C161.025 130.4 160.339 130.819 159.753 131.358C159.591 131.51 159.42 131.73 159.503 131.94C159.577 132.116 159.798 132.175 159.989 132.214C160.451 132.302 160.913 132.39 161.369 132.474C161.738 132.547 162.106 132.616 162.474 132.689C162.646 132.718 162.818 132.753 162.99 132.787C163.015 132.846 163.029 132.899 163.054 132.953C163.918 135.327 164.861 137.72 165.304 140.152C165.413 140.763 165.488 141.379 165.529 141.997C165.544 142.257 165.554 142.516 165.554 142.775Z" fill="#F2F2F2"/>
<path d="M61.1462 23.2027C63.6966 23.2027 65.7641 21.1426 65.7641 18.6013C65.7641 16.0601 63.6966 14 61.1462 14C58.5958 14 56.5283 16.0601 56.5283 18.6013C56.5283 21.1426 58.5958 23.2027 61.1462 23.2027Z" fill="#FD6584"/>
<path d="M71.4825 16.4227C71.3519 15.9971 71.0994 15.6188 70.7559 15.3344C70.4123 15.0499 69.9929 14.8717 69.5491 14.8217C69.539 14.8202 69.5295 14.8221 69.5195 14.8215C69.5066 14.8175 69.4935 14.8145 69.4801 14.8124C67.3683 14.5405 64.9305 15.5469 64.0504 17.5418C63.8357 17.25 63.5529 17.0147 63.2264 16.8562C62.9 16.6977 62.5398 16.6208 62.1768 16.6321C61.7088 16.6631 61.2618 16.8372 60.8966 17.1305C60.5314 17.4238 60.2658 17.8221 60.136 18.2712C60.1221 18.3261 60.1262 18.384 60.1477 18.4365C60.1691 18.489 60.2068 18.5333 60.2552 18.5631C60.3947 18.6809 60.5599 18.7644 60.7377 18.8071C61.1212 18.8881 61.5061 18.9622 61.8923 19.0296C62.646 19.161 63.4036 19.2673 64.1652 19.3484C65.7111 19.5134 67.2666 19.572 68.8206 19.5237C69.3382 19.5076 69.8373 19.4905 70.3116 19.2629C70.6566 19.0931 70.9513 18.8368 71.1668 18.5192C71.3699 18.2139 71.5034 17.868 71.558 17.5058C71.6125 17.1437 71.5867 16.7739 71.4825 16.4227Z" fill="#F0F0F0"/>
<path d="M61.8849 22.5579C61.7543 22.1323 61.5017 21.754 61.1582 21.4695C60.8147 21.1851 60.3952 21.0068 59.9514 20.9568C59.9414 20.9554 59.9319 20.9572 59.9219 20.9566C59.909 20.9527 59.8958 20.9496 59.8825 20.9476C57.7706 20.6756 55.3329 21.682 54.4527 23.6769C54.238 23.3852 53.9552 23.1499 53.6288 22.9914C53.3023 22.8329 52.9421 22.7559 52.5791 22.7672C52.1111 22.7983 51.6641 22.9723 51.2989 23.2656C50.9338 23.5589 50.6682 23.9572 50.5383 24.4063C50.5245 24.4613 50.5286 24.5192 50.55 24.5717C50.5715 24.6242 50.6091 24.6685 50.6575 24.6982C50.797 24.816 50.9622 24.8996 51.14 24.9422C51.5235 25.0232 51.9084 25.0973 52.2946 25.1647C53.0483 25.2961 53.806 25.4024 54.5675 25.4835C56.1135 25.6486 57.669 25.7071 59.223 25.6588C59.7405 25.6428 60.2397 25.6256 60.7139 25.398C61.0589 25.2282 61.3536 24.9719 61.5692 24.6543C61.7723 24.3491 61.9058 24.0032 61.9603 23.641C62.0148 23.2788 61.9891 22.9091 61.8849 22.5579Z" fill="#F0F0F0"/>
<path d="M106.308 93.9757C106.192 94.1465 105.884 94.3498 105.764 94.5178L105.892 94.1317L105.849 94.0422L105.577 93.5002L98.6513 79.5934L98.6487 79.5907L86.9088 56.027V56.0243L86.6394 55.4849V55.4822L80.8294 43.8196L80.5547 43.2667C80.7614 43.2721 80.9681 43.2803 81.1748 43.2911L81.4523 43.8467L87.2461 55.4822L87.2488 55.4849L87.5181 56.0243V56.027L98.9587 78.9917V78.9944L99.228 79.5338V79.5365L106.153 93.4324L106.246 93.6194L106.308 93.9757Z" fill="#3F3D56"/>
<path d="M105.536 56.027H53.708C53.8468 55.8455 53.9881 55.6639 54.135 55.485H105.109C105.256 55.6639 105.398 55.8455 105.536 56.027Z" fill="#3F3D56"/>
<path d="M112.102 78.9944C112.086 79.176 112.067 79.3576 112.042 79.5365H98.7656V78.9944H112.102Z" fill="#3F3D56"/>
<path d="M55.6798 53.6989V97.3136C55.4921 97.1158 55.3125 96.9152 55.1357 96.7147V54.2978C55.3125 54.0973 55.4921 53.8967 55.6798 53.6989Z" fill="#3F3D56"/>
<path d="M106.019 93.4999H55.4082V94.0419H106.019V93.4999Z" fill="#3F3D56"/>
<path d="M105.974 93.9758H106.037V93.8864C106.018 93.9174 105.997 93.9473 105.974 93.9758ZM105.555 55.9606C105.416 55.779 105.275 55.5974 105.128 55.4185C102.239 51.8065 98.6094 48.8503 94.482 46.7475C90.3547 44.6448 85.8245 43.4437 81.1941 43.2247C80.9875 43.2139 80.7808 43.2057 80.574 43.2003C80.2639 43.1922 79.9538 43.1868 79.641 43.1868C75.1424 43.1844 70.6921 44.1114 66.5712 45.9093C62.4503 47.7072 58.7483 50.3369 55.6988 53.6324C55.5112 53.8303 55.3316 54.0308 55.1548 54.2314C54.8094 54.619 54.4757 55.0147 54.1538 55.4185C54.0069 55.5974 53.8656 55.779 53.7268 55.9606C49.13 61.9319 46.7589 69.3095 47.0194 76.8307C47.2799 84.3519 50.1558 91.549 55.1548 97.1903C55.3316 97.3909 55.5112 97.5914 55.6988 97.7893C58.986 101.336 63.0256 104.109 67.5234 105.905C72.0213 107.7 76.8644 108.474 81.7003 108.17C86.5362 107.866 91.2432 106.492 95.4789 104.147C99.7147 101.802 103.372 98.5462 106.186 94.6155C106.306 94.4474 106.426 94.2794 106.543 94.1086C109.559 89.7539 111.454 84.7267 112.062 79.4701C112.086 79.2912 112.105 79.1096 112.121 78.928C112.227 77.871 112.281 76.7986 112.282 75.7108C112.29 68.5679 109.925 61.6231 105.555 55.9606ZM111.515 79.4701C110.923 84.5158 109.122 89.3457 106.265 93.553C106.192 93.6642 106.115 93.7753 106.037 93.8864C106.018 93.9174 105.997 93.9473 105.974 93.9758C105.955 94.0056 105.933 94.0355 105.912 94.0653C103.137 98.0157 99.5005 101.289 95.2754 103.64C91.0503 105.99 86.3459 107.357 81.515 107.639C76.6841 107.92 71.852 107.107 67.381 105.263C62.91 103.418 58.9162 100.589 55.6988 96.987C55.5111 96.781 55.3289 96.575 55.1548 96.3636C50.3717 90.7485 47.6847 83.6579 47.5494 76.2941C47.414 68.9303 49.8387 61.7465 54.4122 55.9606C54.5565 55.779 54.7006 55.5974 54.8501 55.4185C54.9481 55.2966 55.0487 55.1773 55.1548 55.058C55.3289 54.8466 55.5111 54.6407 55.6988 54.4347C58.7037 51.0657 62.3912 48.3696 66.5181 46.5243C70.645 44.6789 75.1176 43.7262 79.641 43.7288C80.0463 43.7288 80.4489 43.737 80.8487 43.7532C81.0581 43.7586 81.2649 43.7695 81.4716 43.7803C85.8984 44.0325 90.2245 45.197 94.1766 47.2002C98.1286 49.2034 101.621 52.0018 104.432 55.4185C104.581 55.5974 104.726 55.779 104.87 55.9606C110.002 62.4639 112.407 70.6959 111.577 78.928C111.558 79.1096 111.539 79.2912 111.515 79.4701ZM105.974 93.9758H106.037V93.8864C106.018 93.9174 105.997 93.9473 105.974 93.9758Z" fill="#CCCCCC"/>
<path d="M75.527 32.8734C75.527 33.0224 75.5221 33.1702 75.5124 33.3168C75.4581 34.162 75.2438 34.9893 74.8808 35.7552C74.878 35.7618 74.8747 35.7678 74.8719 35.7739C74.855 35.8094 74.8377 35.8449 74.8199 35.88C74.7119 36.0966 74.5922 36.3072 74.4612 36.5108C73.8627 37.4453 73.0424 38.2186 72.0728 38.7623C71.1032 39.306 70.0141 39.6034 68.9018 39.6281L68.9689 43.4706L69.8434 43.0118L69.9995 43.3075L68.9754 43.8448L69.1006 50.9813L69.102 51.0766L68.4259 51.2266L68.4273 51.1308L68.6401 39.6286C67.7448 39.6158 66.861 39.4259 66.0399 39.0699C65.2189 38.7139 64.477 38.199 63.8573 37.555C63.8146 37.5111 63.7724 37.4658 63.7311 37.4209L63.7265 37.4157C63.2101 36.8547 62.7926 36.2109 62.4914 35.5113C62.4979 35.5188 62.5049 35.5258 62.5115 35.5333C59.7174 28.5367 61.343 25.2933 65.7273 26.8251C65.7507 26.8134 65.7746 26.8022 65.7981 26.7905C67.3316 26.0545 69.0866 25.9195 70.7153 26.4121C72.344 26.9048 73.7275 27.9892 74.5915 29.4504C74.6328 29.5196 74.6727 29.5901 74.7111 29.6611C75.2478 30.6473 75.5283 31.7516 75.527 32.8734Z" fill="#E5E5E5"/>
<path d="M83.5005 26.9219C83.4188 28.2643 83.0702 29.5771 82.4751 30.7842C81.3299 33.0934 79.3198 34.8443 76.8146 35.4975C76.8104 35.4997 76.8057 35.5006 76.801 35.5002C76.1706 35.664 75.5236 35.7558 74.8724 35.7739H74.818C74.75 35.7766 74.682 35.7766 74.614 35.7766C74.5678 35.7766 74.5216 35.7766 74.4753 35.7739C72.1429 35.7381 69.9182 34.7897 68.2816 33.1335C66.6449 31.4774 65.7275 29.2463 65.7275 26.9219V26.8244C65.7316 26.2593 65.814 25.6974 65.9724 25.1548C65.9724 25.1521 65.9751 25.1494 65.9751 25.1467C66.2705 24.2037 66.8033 23.3518 67.5228 22.6721C69.3044 20.9158 72.1252 19.8127 74.614 18.0673C80.0651 14.2457 84.069 18.0483 83.5005 26.9219Z" fill="#E5E5E5"/>
<path opacity="0.2" d="M82.4752 30.7842C81.3301 33.0934 79.32 34.8442 76.8148 35.4974C76.8106 35.4996 76.8059 35.5006 76.8012 35.5002C76.1725 35.6557 75.5284 35.7411 74.8808 35.7549H74.8182C74.704 35.7577 74.5897 35.7577 74.4755 35.7549C72.1368 35.6968 69.9152 34.7234 68.2913 33.0455C66.6674 31.3676 65.7718 29.12 65.7984 26.7891C65.8067 26.2402 65.865 25.6932 65.9725 25.1548C65.9725 25.1521 65.9752 25.1494 65.9752 25.1467C66.2707 24.2037 66.8035 23.3518 67.523 22.6721C67.2813 23.8206 67.2712 25.0055 67.4932 26.1579C67.7152 27.3104 68.1649 28.4073 68.8161 29.3851C69.4673 30.3628 70.3071 31.2018 71.2866 31.8533C72.2661 32.5048 73.3658 32.9558 74.5217 33.1801C74.606 33.1964 74.6904 33.2126 74.7747 33.2262C75.0195 33.2669 75.2643 33.2967 75.5118 33.3156C76.7871 33.4187 78.0696 33.2459 79.2715 32.809C80.4734 32.372 81.5663 31.6813 82.4752 30.7842Z" fill="black"/>
<path d="M74.9155 41.3016L76.2571 40.5979L76.0524 40.2104L74.9064 40.8115L74.8203 35.8802V35.8795L74.8182 35.7751V35.7565L74.7737 33.2267L74.7114 29.6613L74.6636 26.9218H74.6385L74.5918 29.4503V29.451L74.5229 33.1811L74.4753 35.7549L74.4751 35.7763L74.4613 36.5107L74.1893 51.2414L74.1875 51.3387L75.0951 51.5925L75.0935 51.4944L74.9155 41.3016Z" fill="#3F3D56"/>
<path d="M107.288 58.7457C101.647 57.6195 95.9882 56.5978 90.2605 55.9726C84.8295 55.3361 79.3527 55.1783 73.8939 55.501C68.9639 55.8324 63.9917 56.6094 59.3604 58.3806C55.7915 59.7456 51.9873 61.8106 50.0596 65.2546C48.2013 68.5744 48.9261 72.4028 50.9495 75.4658C53.3841 79.1512 57.1805 81.6767 61.1275 83.5225C65.6215 85.6241 70.4282 86.9864 75.2412 88.145C77.6821 88.7326 80.1363 89.2637 82.5907 89.7922C83.1027 89.9024 83.3215 89.1188 82.8076 89.0081C77.8581 87.9424 72.8943 86.8733 68.0677 85.3306C63.6012 83.903 59.0303 82.0743 55.3727 79.0767C52.4136 76.6516 49.6002 73.1094 49.7748 69.0821C49.9509 65.0221 53.3695 62.1874 56.7202 60.4426C60.9077 58.2621 65.6652 57.2 70.327 56.6448C75.6649 56.0522 81.048 55.9792 86.4001 56.427C93.5531 56.9693 100.6 58.2274 107.62 59.6365" fill="black"/>
<path d="M80.8052 65.2115C83.1791 66.3938 84.6243 67.9552 84.6243 69.6678C84.6243 73.3572 77.9244 76.3479 69.6598 76.3479C66.0666 76.3479 62.77 75.7821 60.1904 74.8399C62.9303 76.2044 66.9076 77.0637 71.3358 77.0637C79.6005 77.0637 86.3004 74.0729 86.3004 70.3836C86.3004 68.2982 84.1589 66.4366 80.8052 65.2115Z" fill="#F1F1F1"/>
<path d="M86.0856 67.7457C88.7642 69.0798 90.395 70.8417 90.395 72.7741C90.395 76.9371 82.835 80.3118 73.5093 80.3118C69.4547 80.3118 65.735 79.6734 62.8242 78.6102C65.9159 80.1499 70.4038 81.1194 75.4005 81.1194C84.7261 81.1194 92.2862 77.7447 92.2862 73.5817C92.2862 71.2287 89.8698 69.128 86.0856 67.7457Z" fill="#F1F1F1"/>
<path d="M78.7844 66.3279C80.4568 67.1608 81.4751 68.2609 81.4751 69.4675C81.4751 72.0667 76.7548 74.1738 70.9322 74.1738C68.6637 74.203 66.4071 73.8436 64.2607 73.1113C66.1911 74.0727 68.9932 74.678 72.113 74.678C77.9356 74.678 82.6559 72.5709 82.6559 69.9717C82.6559 68.5025 81.1472 67.1909 78.7844 66.3279Z" fill="#F1F1F1"/>
<path d="M69.8788 71.3055C66.4398 71.3055 64.7673 70.3654 63.9699 69.5768C63.8244 69.4321 63.7252 69.2475 63.6851 69.0466C63.6449 68.8457 63.6655 68.6374 63.7442 68.4481C63.8229 68.2589 63.9562 68.0971 64.1272 67.9834C64.2982 67.8697 64.4993 67.8091 64.7049 67.8093H76.7026C76.866 67.8092 77.0253 67.8598 77.1584 67.9542C77.2915 68.0485 77.3918 68.1818 77.4453 68.3356C77.4988 68.4894 77.5028 68.6559 77.4569 68.8121C77.4109 68.9683 77.3172 69.1063 77.1889 69.207C75.9667 70.1643 73.7064 71.3055 69.8788 71.3055Z" fill="#3F3D56"/>
<path d="M72.3697 59.2747C71.4344 58.5666 70.2604 58.2467 69.0937 58.3817C71.165 58.8913 69.5305 61.7437 71.4168 64.702C72.4448 66.3141 70.4456 67.1044 68.541 67.3208C69.5604 67.566 70.6333 67.454 71.5796 67.0037C72.5258 66.5533 73.2876 65.7921 73.7368 64.848C74.1861 63.9039 74.2954 62.8344 74.0464 61.8195C73.7975 60.8045 73.2054 59.9058 72.3697 59.2747Z" fill="#3F3D56"/>
<path d="M70.2464 57.7877H69.8047V68.2651H70.2464V57.7877Z" fill="#3F3D56"/>
<path d="M112.758 60.7283C111.585 59.905 110.26 59.3201 108.86 59.0068C107.46 58.6936 106.011 58.6582 104.598 58.9027C103.184 59.1472 101.832 59.6668 100.62 60.4318C99.4072 61.1968 98.3579 62.1923 97.5316 63.3614C94.0567 68.278 90.5699 81.1707 93.0312 88.6395C100.373 80.9126 111.652 80.1096 115.4 75.9001C119.406 71.4021 117.692 64.1908 112.758 60.7283Z" fill="#50D669"/>
<path d="M106.318 71.8618C108.286 71.8618 109.882 70.2719 109.882 68.3107C109.882 66.3495 108.286 64.7596 106.318 64.7596C104.349 64.7596 102.754 66.3495 102.754 68.3107C102.754 70.2719 104.349 71.8618 106.318 71.8618Z" fill="white"/>
<path d="M90.0188 92.5069C91.308 92.5069 92.353 91.4655 92.353 90.181C92.353 88.8964 91.308 87.8551 90.0188 87.8551C88.7296 87.8551 87.6846 88.8964 87.6846 90.181C87.6846 91.4655 88.7296 92.5069 90.0188 92.5069Z" fill="#50D669"/>
<path opacity="0.2" d="M110.131 67.4913C110.367 67.894 110.521 68.3391 110.584 68.8011C110.647 69.2632 110.619 69.7331 110.5 70.1841C110.381 70.6352 110.174 71.0584 109.891 71.4298C109.608 71.8011 109.254 72.1133 108.85 72.3484C108.446 72.5835 107.999 72.737 107.536 72.8002C107.072 72.8633 106.6 72.8348 106.148 72.7163C105.695 72.5978 105.27 72.3916 104.898 72.1096C104.525 71.8275 104.212 71.475 103.976 71.0723C104.612 71.6284 105.426 71.9407 106.272 71.9534C107.118 71.9661 107.941 71.6784 108.594 71.1417C109.246 70.605 109.686 69.8544 109.834 69.0242C109.982 68.194 109.829 67.3384 109.401 66.6106C109.691 66.863 109.937 67.1605 110.131 67.4913Z" fill="#231F20"/>
<path opacity="0.2" d="M115.408 75.9168C111.659 80.1263 100.38 80.9292 93.0384 88.6562C92.8093 87.9495 92.6329 87.2269 92.5107 86.4943C99.8487 79.4698 110.5 78.5821 114.122 74.5149C117.363 70.8747 116.859 65.4578 113.933 61.6887C117.945 65.3947 119.078 71.7948 115.408 75.9168Z" fill="#231F20"/>
<path d="M153.84 140.151H151.18L149.914 129.926H153.84L153.84 140.151Z" fill="#FFB6B6"/>
<path d="M154.518 142.72L145.94 142.72V142.612C145.94 141.729 146.292 140.883 146.918 140.259C147.544 139.636 148.394 139.285 149.279 139.285H149.279L150.846 138.101L153.769 139.285L154.518 139.285L154.518 142.72Z" fill="#2F2E41"/>
<path d="M143.531 138.48L140.936 139.064L137.441 129.369L141.271 128.507L143.531 138.48Z" fill="#FFB6B6"/>
<path d="M144.761 140.838L136.394 142.72L136.37 142.615C136.175 141.754 136.331 140.851 136.804 140.105C137.277 139.36 138.028 138.831 138.891 138.637L138.892 138.637L140.158 137.138L143.271 137.651L144.002 137.487L144.761 140.838Z" fill="#2F2E41"/>
<path d="M157.209 77.6456C158.457 81.3938 158.325 85.4624 156.91 89.8291L156.305 114.415C157.305 115.511 157.932 119.983 156.392 123.185C154.334 127.461 155.752 133.374 154.297 136.211H150.079L149.043 124.662L148.13 123.359L147.991 112.942C147.431 111.621 146.782 110.31 147.921 108.779L147.891 106.969L147.729 97.3243L141.367 106.593C141.187 108.691 140.11 109.79 138.686 110.501L140.656 119.165C144.101 122.103 143.259 126.652 143.316 130.862L144.445 135.83L139.254 136.293L136.963 129.555L134.387 125.403L129.907 108.804L133.031 101.579L134.308 98.6262L141.439 82.1353L157.209 77.6456Z" fill="#2F2E41"/>
<path d="M113.138 64.2779C113.346 64.4848 113.597 64.6437 113.873 64.7435C114.149 64.8433 114.444 64.8815 114.737 64.8554C115.029 64.8294 115.313 64.7397 115.567 64.5927C115.821 64.4457 116.04 64.2449 116.208 64.0046L123.085 65.9308L121.956 62.4071L115.599 61.1182C115.175 60.8639 114.672 60.7735 114.185 60.8639C113.699 60.9543 113.263 61.2194 112.96 61.6089C112.656 61.9984 112.507 62.4852 112.54 62.9771C112.572 63.469 112.785 63.9319 113.138 64.2779Z" fill="#FFB8B8"/>
<path d="M118.762 61.4319L125.475 61.3829C127.285 60.8787 129.193 60.8356 131.025 61.2576L131.381 61.3397L134.182 61.0232C135.852 57.6969 138.951 54.6895 143.111 51.9191C143.738 51.4153 144.466 51.0496 145.245 50.8461C146.024 50.6426 146.838 50.6059 147.633 50.7383C148.427 50.8708 149.185 51.1695 149.855 51.6147C150.526 52.0598 151.094 52.6415 151.523 53.3213C152.297 54.5519 152.569 56.0308 152.284 57.4551C151.999 58.8793 151.179 60.1413 149.991 60.9825L137.315 68.4086C136.203 69.0601 134.939 69.412 133.649 69.4294L133.619 69.4454L126.388 66.7458L122.668 66.2742L117.624 64.8135L118.762 61.4319Z" fill="#50D669"/>
<path d="M145.692 45.8242C149.19 45.8242 152.025 42.999 152.025 39.5139C152.025 36.0287 149.19 33.2035 145.692 33.2035C142.195 33.2035 139.359 36.0287 139.359 39.5139C139.359 42.999 142.195 45.8242 145.692 45.8242Z" fill="#FFB8B8"/>
<path d="M151.607 43.516C152.076 42.8486 152.409 41.7798 152.606 40.9986C152.869 39.9699 152.912 38.8977 152.733 37.8513C152.553 36.805 152.155 35.8078 151.565 34.9245C151.346 34.5645 151.034 34.2707 150.661 34.0746C150.278 33.9041 149.772 33.9447 149.505 34.2672C149.504 33.9842 149.445 33.7044 149.332 33.4451C149.218 33.1857 149.053 32.9523 148.845 32.7592C148.426 32.3752 147.924 32.0937 147.377 31.9369C146.324 31.6168 145.203 31.5869 144.134 31.8503C143.065 32.1137 142.087 32.6605 141.305 33.4328C140.999 33.7427 141.108 32.1944 140.769 32.4671C140.44 32.7601 140.009 32.9132 139.569 32.8937C139.135 32.8477 138.338 34.3872 138.333 33.9528C137.877 34.4082 137.676 36.3287 137.819 36.9562C137.961 37.5837 140.084 37.3064 140.693 37.5215C141.096 37.6639 141.534 37.6687 141.951 37.7615C142.693 37.9526 143.34 38.4079 143.768 39.0414C144.196 39.6749 144.377 40.4427 144.276 41.2C144.543 40.8421 144.867 40.5296 145.234 40.2745C145.419 40.1486 145.631 40.0684 145.854 40.0408C146.076 40.0131 146.302 40.0388 146.512 40.1156C146.702 40.217 146.869 40.3561 147.003 40.5243C147.137 40.6925 147.235 40.8861 147.291 41.0934C147.429 41.4991 147.483 41.9298 147.623 42.3347C148.036 43.5226 148.249 44.7696 149.401 45.0513C150.31 45.2736 150.966 44.4272 151.607 43.516Z" fill="#2F2E41"/>
<path d="M157.75 76.3946L157.055 75.0089C156.203 69.7543 155.362 64.8533 156.505 60.4448C156.577 56.5963 155.383 52.9808 152.068 51.0065L150.573 50.1154L149.816 48.2024L142.846 48.372L142.826 50.8798L140.33 54.8468V54.8632L140.486 76.4498L141.175 78.6776L140.135 81.2691L140.687 82.9225L154.427 80.7336L156.025 80.4782C156.21 80.4193 156.388 80.3419 156.556 80.2472C157.13 79.93 157.579 79.4296 157.832 78.8268C157.846 78.792 157.859 78.7593 157.871 78.7246C157.979 78.4432 158.041 78.1466 158.056 77.8457C158.081 77.3439 157.975 76.8441 157.75 76.3946Z" fill="#50D669"/>
<path opacity="0.2" d="M158.056 77.8457C158.041 78.1465 157.979 78.4432 157.871 78.7245L156.556 80.2472C156.388 80.3419 156.21 80.4193 156.025 80.4781L154.427 80.7336L156.739 76.4028L151.658 65.3192L158.056 77.8457Z" fill="black"/>
<path d="M163.585 90.6654C163.33 90.492 163.116 90.2651 162.959 90.0005C162.801 89.7359 162.704 89.4402 162.673 89.134C162.643 88.8279 162.68 88.5188 162.782 88.2286C162.885 87.9383 163.05 87.674 163.266 87.4542L159.922 80.7593L163.793 81.229L166.375 87.5146C166.722 87.9007 166.914 88.4001 166.916 88.918C166.918 89.436 166.729 89.9366 166.385 90.325C166.041 90.7133 165.566 90.9625 165.05 91.0252C164.534 91.088 164.013 90.9599 163.585 90.6654Z" fill="#FFB8B8"/>
<path d="M150.028 67.6297L152.565 67.2806C152.565 67.2806 152.81 71.0917 154.024 71.6693C155.237 72.2468 154.828 72.3419 154.971 72.9533C155.114 73.5647 155.762 74.4887 156.723 74.91C157.684 75.3313 162.057 85.9253 162.057 85.9253L165.738 85.0698C165.398 84.15 165.173 83.1915 165.07 82.2165C164.941 80.7424 163.264 77.264 162.712 76.7476C162.16 76.2313 162.378 75.321 162.092 74.0982C161.806 72.8753 162.005 74.0092 161.528 71.9712C161.051 69.9331 155.688 57.7191 155.464 55.8373C155.239 53.9555 152.607 52.8479 152.607 52.8479L150.562 53.3232L150.028 67.6297Z" fill="#50D669"/>
<path d="M107.896 143H187.744C187.812 143 187.877 142.973 187.925 142.925C187.973 142.878 188 142.813 188 142.745C188 142.678 187.973 142.613 187.925 142.565C187.877 142.517 187.812 142.49 187.744 142.49H107.896C107.829 142.49 107.764 142.517 107.716 142.565C107.668 142.613 107.641 142.678 107.641 142.745C107.641 142.813 107.668 142.878 107.716 142.925C107.764 142.973 107.829 143 107.896 143Z" fill="#CCCCCC"/>
</g>
<defs>
<clipPath id="clip0_27_680">
<rect width="141" height="129" fill="white" transform="translate(47 14)"/>
</clipPath>
</defs>
</svg>
